<svg version="1.1" id="Layer_1" xmlns="http://www.w3.org/2000/svg" x="0" y="0" viewBox="0 0 688.2 119.7" xml:space="preserve"><path d="M102 17.5c-5.5-5.4-11.9-9.6-19-12.6C75.7 1.7 67.8.1 59.8 0c-8 0-16 1.7-23.3 4.9C22.3 11 11 22.3 4.9 36.5 1.7 43.8 0 51.7 0 59.7S1.7 75.6 4.9 83c6.1 14.3 17.5 25.7 31.8 31.8 7.3 3.2 15.2 4.9 23.3 4.9 8 0 15.9-1.7 23.3-4.9 6.1-2.6 11.7-6.1 16.6-10.5v10.3h19.9V59.8c0-8-1.7-15.9-4.9-23.3-3.1-7.1-7.5-13.5-12.9-19zm-57.8 79C34.7 92.5 27 84.8 23 75.2c-4.2-9.9-4.2-21.1 0-31C27 34.6 34.7 27 44.2 23c9.9-4.1 21-4.1 30.9 0 9.6 4 17.3 11.6 21.4 21.2 2.1 4.9 3.1 10.1 3.1 15.4v1.7c-.3 4.7-1.3 9.4-3.1 13.8-2 4.7-4.9 9-8.6 12.6-3.7 3.6-8 6.5-12.7 8.6-9.9 4.2-21 4.3-31 .2zM161 31.6c3.7-3.6 8-6.5 12.7-8.6 14.9-6.3 32.2-2.9 43.6 8.6 2.5 2.5 4.7 5.5 6.3 8.7l.7 1.5h21.9l-2.2-5.2c-3-7.1-7.3-13.6-12.7-19-5.5-5.3-11.9-9.6-19-12.5a60.7 60.7 0 0 0-46.6 0c-14.3 6.1-25.7 17.5-31.8 31.8-3.2 7.3-4.9 15.2-4.9 23.3 0 8 1.7 15.9 4.9 23.3 6.1 14.3 17.5 25.7 31.8 31.8 14.9 6.2 31.6 6.2 46.5 0 7.1-3 13.6-7.4 19-12.8 5.5-5.5 9.8-12 12.7-19.1l2-5.3h-21.4l-.8 1.4c-1.7 3.3-4 6.3-6.6 8.9-3.7 3.6-8 6.5-12.7 8.6-9.9 4-21 4-30.9 0-9.7-4-17.4-11.7-21.4-21.4-4.2-9.9-4.2-21.1 0-31 2.3-5.1 5.3-9.4 8.9-13zm126 0c3.7-3.7 8.1-6.6 12.9-8.6 9.9-4 21-4 30.9 0 4.8 2 9.1 4.9 12.7 8.6 2.6 2.5 4.7 5.5 6.4 8.7l.7 1.5h21.9l-2.2-5.2c-3-7.1-7.3-13.6-12.7-19-5.5-5.4-12-9.6-19.2-12.5a60.7 60.7 0 0 0-46.6 0C277.5 11 266.1 22.4 260 36.7c-3.2 7.3-4.9 15.2-4.9 23.3 0 8 1.7 15.9 4.9 23.3 6.1 14.3 17.5 25.7 31.8 31.8 14.9 6.2 31.6 6.2 46.5 0 7.1-3 13.6-7.4 19-12.8 5.4-5.5 9.8-12 12.7-19.1l2-5.3h-21.4l-.7 1.4c-1.8 3.3-4 6.3-6.6 8.9-3.7 3.6-8 6.5-12.7 8.6-9.9 4-21 4-30.9 0-9.6-4-17.2-11.7-21.3-21.3-4.1-9.9-4.1-21 0-30.9 2.1-4.9 4.9-9.3 8.6-13zm213.8 26.5v-2.9c-.4-6.5-2-12.8-4.6-18.7-3-7.1-7.3-13.6-12.7-19-5.5-5.4-12-9.6-19.2-12.5a60.45 60.45 0 0 0-46.5 0c-14.3 6-25.7 17.4-31.8 31.7-3.2 7.3-4.9 15.2-4.9 23.3 0 8 1.7 15.9 4.9 23.3 6.1 14.2 17.5 25.6 31.8 31.6 14.9 6.3 31.7 6.3 46.6 0 7.1-3 13.5-7.4 19-12.8 5.5-5.5 9.8-12 12.8-19.1l2-5.3h-21.3l-.8 1.4c-1.7 3.3-4 6.3-6.6 8.9-3.7 3.6-8 6.5-12.7 8.6-9.9 4-21 4-30.9 0-9.6-4-17.2-11.7-21.3-21.3-2.1-4.9-3.1-10.1-3.1-15.4v-1.7l99.3-.1zm-93.4-19.9c1.6-2.4 3.4-4.6 5.5-6.6 15.6-15.5 40.8-15.5 56.3 0 2 2 3.7 4.3 5.2 6.6h-67zM550.6 9.9c-6.1 2.6-11.8 6.3-16.8 10.7V5.8h-19.7V115h19.7V64.8c0-5.3 1-10.6 3.1-15.4 4-9.6 11.7-17.2 21.3-21.3 4.9-2.1 10.1-3.1 15.4-3.1h2.7V5h-2.7c-7.9 0-15.8 1.7-23 4.9zm137.6 39.7c0-6.6-1.3-13.2-3.9-19.2C679.2 18.5 669.7 9 657.7 4c-9.3-4.1-19.6-5.1-29.5-2.9-3.3.7-6.5 1.8-9.6 3.2-3 1.3-5.7 3-8.3 4.9l-1.2 1V5.4h-19.7v109.2h20.2v-65c0-3.7.8-7.4 2.4-10.7 1.5-3.5 3.6-6.6 6.2-9.4 2.7-2.7 5.9-5 9.4-6.6 7.1-3.1 15.2-3.1 22.3 0 7 3 12.6 8.6 15.6 15.6 1.5 3.6 2.3 7.5 2.3 11.4v64.9h20.6V49.6z" fill="#fff"/></svg>