<?xml version="1.0" encoding="utf-8"?>
<!-- Generator: Adobe Illustrator 22.1.0, SVG Export Plug-In . SVG Version: 6.00 Build 0)  -->
<svg version="1.1" id="Layer_1" xmlns="http://www.w3.org/2000/svg" xmlns:xlink="http://www.w3.org/1999/xlink" x="0px" y="0px"
	 viewBox="0 0 688.2 119.7" style="enable-background:new 0 0 688.2 119.7;" xml:space="preserve">
<style type="text/css">
	.st0{fill:#FFFFFF;}
</style>
<title>Accern-Logo-White</title>
<path class="st0" d="M102,17.5c-5.5-5.4-11.9-9.6-19-12.6C75.7,1.7,67.8,0.1,59.8,0c-8,0-16,1.7-23.3,4.9C22.3,11,11,22.3,4.9,36.5
	C1.7,43.8,0,51.7,0,59.7c0,8,1.7,15.9,4.9,23.3c6.1,14.3,17.5,25.7,31.8,31.8c7.3,3.2,15.2,4.9,23.3,4.9c8,0,15.9-1.7,23.3-4.9
	c6.1-2.6,11.7-6.1,16.6-10.5v10.3h19.9V59.8c0-8-1.7-15.9-4.9-23.3C111.8,29.4,107.4,23,102,17.5z M44.2,96.5
	C34.7,92.5,27,84.8,23,75.2c-4.2-9.9-4.2-21.1,0-31c4-9.6,11.7-17.2,21.2-21.2c9.9-4.1,21-4.1,30.9,0c9.6,4,17.3,11.6,21.4,21.2
	c2.1,4.9,3.1,10.1,3.1,15.4v1.7c-0.3,4.7-1.3,9.4-3.1,13.8c-2,4.7-4.9,9-8.6,12.6c-3.7,3.6-8,6.5-12.7,8.6
	C65.3,100.5,54.2,100.6,44.2,96.5z"/>
<path class="st0" d="M161,31.6c3.7-3.6,8-6.5,12.7-8.6c14.9-6.3,32.2-2.9,43.6,8.6c2.5,2.5,4.7,5.5,6.3,8.7l0.7,1.5h21.9l-2.2-5.2
	c-3-7.1-7.3-13.6-12.7-19c-5.5-5.3-11.9-9.6-19-12.5c-14.9-6.2-31.7-6.2-46.6,0c-14.3,6.1-25.7,17.5-31.8,31.8
	c-3.2,7.3-4.9,15.2-4.9,23.3c0,8,1.7,15.9,4.9,23.3c6.1,14.3,17.5,25.7,31.8,31.8c14.9,6.2,31.6,6.2,46.5,0c7.1-3,13.6-7.4,19-12.8
	c5.5-5.5,9.8-12,12.7-19.1l2-5.3h-21.4l-0.8,1.4c-1.7,3.3-4,6.3-6.6,8.9c-3.7,3.6-8,6.5-12.7,8.6c-9.9,4-21,4-30.9,0
	c-9.7-4-17.4-11.7-21.4-21.4c-4.2-9.9-4.2-21.1,0-31C154.4,39.5,157.4,35.2,161,31.6z"/>
<path class="st0" d="M287,31.6c3.7-3.7,8.1-6.6,12.9-8.6c9.9-4,21-4,30.9,0c4.8,2,9.1,4.9,12.7,8.6c2.6,2.5,4.7,5.5,6.4,8.7l0.7,1.5
	h21.9l-2.2-5.2c-3-7.1-7.3-13.6-12.7-19c-5.5-5.4-12-9.6-19.2-12.5c-14.9-6.2-31.7-6.2-46.6,0C277.5,11,266.1,22.4,260,36.7
	c-3.2,7.3-4.9,15.2-4.9,23.3c0,8,1.7,15.9,4.9,23.3c6.1,14.3,17.5,25.7,31.8,31.8c14.9,6.2,31.6,6.2,46.5,0c7.1-3,13.6-7.4,19-12.8
	c5.4-5.5,9.8-12,12.7-19.1l2-5.3h-21.4l-0.7,1.4c-1.8,3.3-4,6.3-6.6,8.9c-3.7,3.6-8,6.5-12.7,8.6c-9.9,4-21,4-30.9,0
	c-9.6-4-17.2-11.7-21.3-21.3c-4.1-9.9-4.1-21,0-30.9C280.5,39.7,283.3,35.3,287,31.6z"/>
<path class="st0" d="M500.8,58.1v-2.9c-0.4-6.5-2-12.8-4.6-18.7c-3-7.1-7.3-13.6-12.7-19c-5.5-5.4-12-9.6-19.2-12.5
	c-14.9-6.2-31.6-6.2-46.5,0C403.5,11,392.1,22.4,386,36.7c-3.2,7.3-4.9,15.2-4.9,23.3c0,8,1.7,15.9,4.9,23.3
	c6.1,14.2,17.5,25.6,31.8,31.6c14.9,6.3,31.7,6.3,46.6,0c7.1-3,13.5-7.4,19-12.8c5.5-5.5,9.8-12,12.8-19.1l2-5.3h-21.3l-0.8,1.4
	c-1.7,3.3-4,6.3-6.6,8.9c-3.7,3.6-8,6.5-12.7,8.6c-9.9,4-21,4-30.9,0c-9.6-4-17.2-11.7-21.3-21.3c-2.1-4.9-3.1-10.1-3.1-15.4
	c0-0.5,0-1.1,0-1.7L500.8,58.1z M407.4,38.2c1.6-2.4,3.4-4.6,5.5-6.6c15.6-15.5,40.8-15.5,56.3,0c2,2,3.7,4.3,5.2,6.6L407.4,38.2z"
	/>
<path class="st0" d="M550.6,9.9c-6.1,2.6-11.8,6.3-16.8,10.7V5.8h-19.7V115h19.7V64.8c0-5.3,1-10.6,3.1-15.4
	c4-9.6,11.7-17.2,21.3-21.3c4.9-2.1,10.1-3.1,15.4-3.1h2.7v-20h-2.7C565.7,5,557.8,6.7,550.6,9.9z"/>
<path class="st0" d="M688.2,49.6c0-6.6-1.3-13.2-3.9-19.2C679.2,18.5,669.7,9,657.7,4c-9.3-4.1-19.6-5.1-29.5-2.9
	c-3.3,0.7-6.5,1.8-9.6,3.2c-3,1.3-5.7,3-8.3,4.9l-1.2,1V5.4h-19.7v109.2h20.2V49.6c0-3.7,0.8-7.4,2.4-10.7c1.5-3.5,3.6-6.6,6.2-9.4
	c2.7-2.7,5.9-5,9.4-6.6c7.1-3.1,15.2-3.1,22.3,0c7,3,12.6,8.6,15.6,15.6c1.5,3.6,2.3,7.5,2.3,11.4v64.9h20.6V49.6z"/>
</svg>
