<svg version="1.1" id="Layer_1" xmlns="http://www.w3.org/2000/svg" x="0" y="0" viewBox="0 0 184 50" xml:space="preserve"><style type="text/css">.st1,.st2{fill:#fff}.st2{opacity:.5;enable-background:new}</style><path id="Rectangle-6" fill="none" stroke="#fff" stroke-opacity=".3" d="M.5.5h183v49H.5z"/><path id="Rectangle-2" class="st1" d="M0 0h3v3H0z"/><path id="Rectangle-2_1_" class="st2" d="M0 0h1v12H0z"/><path id="Rectangle-2-Copy-5" class="st2" d="M0 0h12v1H0z"/><path id="Rectangle-2-Copy-7" class="st2" d="M172 0h12v1h-12z"/><path id="Rectangle-2-Copy-9" class="st2" d="M172 49h12v1h-12z"/><path id="Rectangle-2-Copy-6" class="st2" d="M0 49h12v1H0z"/><path id="Rectangle-2-Copy-4" class="st2" d="M0 38h1v12H0z"/><path id="Rectangle-2-Copy-8" class="st2" d="M183 38h1v12h-1z"/><path id="Rectangle-2-Copy-10" class="st2" d="M183 0h1v12h-1z"/><path id="Rectangle-2-Copy-2" class="st1" d="M181 0h3v3h-3z"/><path id="Rectangle-2-Copy" class="st1" d="M0 47h3v3H0z"/><path id="Rectangle-2-Copy-3" class="st1" d="M181 47h3v3h-3z"/></svg>