<?xml version="1.0" encoding="utf-8"?>
<!-- Generator: Adobe Illustrator 22.1.0, SVG Export Plug-In . SVG Version: 6.00 Build 0)  -->
<svg version="1.1" id="Layer_1" xmlns="http://www.w3.org/2000/svg" xmlns:xlink="http://www.w3.org/1999/xlink" x="0px" y="0px"
	 viewBox="0 0 310.7 167.3" style="enable-background:new 0 0 310.7 167.3;" xml:space="preserve">
<style type="text/css">
	.st0{fill:#FFFFFF;}
</style>
<g>
	<path class="st0" d="M237.6,85.3c-3.1,0-6.1-1.2-8.5-3.5c-4.7-4.7-4.7-12.2,0-16.9l61.2-61.4c4.7-4.7,12.2-4.7,16.9,0
		c4.7,4.7,4.7,12.2,0,16.9L246,81.8C243.7,84.1,240.6,85.3,237.6,85.3z"/>
</g>
<g>
	<path class="st0" d="M155.4,167.3c-3.1,0-6.1-1.2-8.5-3.5L3.5,20.4c-4.7-4.7-4.7-12.2,0-16.9s12.2-4.7,16.9,0l135,135l22.6-22.5
		c4.7-4.7,12.2-4.7,16.9,0s4.7,12.2,0,16.9l-31,31C161.5,166.2,158.4,167.3,155.4,167.3z"/>
</g>
</svg>
