<svg xmlns="http://www.w3.org/2000/svg" version="1.1" id="Capa_1" x="0" y="0" viewBox="0 0 486.392 486.392" xml:space="preserve" width="512" height="512"><g fill="#FFF"><path d="M.182 0v93.266c216.505 0 392.7 176.378 392.7 393.126h93.509C486.392 218.268 268.245 0 .182 0z"/><path d="M.061 165.221v93.235c60.708 0 117.768 23.742 160.752 66.757 42.924 42.894 66.636 100.227 66.636 161.178h93.661c0-177.107-144.063-321.17-321.049-321.17z"/><path d="M64.751 356.647C29.031 356.647 0 385.739 0 421.245c0 35.719 29.031 64.538 64.751 64.538 35.841 0 64.842-28.819 64.842-64.538-.03-35.445-29.001-64.598-64.842-64.598z"/></g></svg>