<svg version="1.1" id="Layer_1" xmlns="http://www.w3.org/2000/svg" xmlns:xlink="http://www.w3.org/1999/xlink" x="0" y="0" viewBox="0 0 59.7 816.3" xml:space="preserve"><style type="text/css">.st1{fill:#fff}</style><path class="st1" d="M30.1 816.3c-5.5 0-10.1-4.5-10.1-10s4.4-10 9.9-10h.2c5.5 0 10 4.5 10 10s-4.5 10-10 10zm-.2-59.7c-5.5 0-10-4.5-10-10v-19.9c0-5.5 4.5-10 10-10s10 4.5 10 10v19.9c-.1 5.5-4.5 10-10 10zm0-79.7c-5.5 0-10-4.5-10-10V647c0-5.5 4.5-10 10-10s10 4.5 10 10v20c-.1 5.5-4.5 9.9-10 9.9zm0-79.6c-5.5 0-10-4.5-10-10v-19.9c0-5.5 4.5-10 10-10s10 4.5 10 10v19.9c-.1 5.6-4.5 10-10 10zm0-79.6c-5.5 0-10-4.5-10-10v-19.9c0-5.5 4.5-10 10-10s10 4.5 10 10v19.9c-.1 5.5-4.5 10-10 10zm0-79.7c-5.5 0-10-4.5-10-10v-19.9c0-5.5 4.5-10 10-10s10 4.5 10 10V428c-.1 5.6-4.5 10-10 10zm0-79.6c-5.5 0-10-4.5-10-10v-19.9c0-5.5 4.5-10 10-10s10 4.5 10 10v19.9c-.1 5.5-4.5 10-10 10zm0-79.7c-5.5 0-10-4.5-10-10v-19.9c0-5.5 4.5-10 10-10s10 4.5 10 10v19.9c-.1 5.6-4.5 10-10 10zm0-79.6c-5.5 0-10-4.5-10-10v-19.9c0-5.5 4.5-10 10-10s10 4.5 10 10v19.9c-.1 5.5-4.5 10-10 10zm0-79.6c-5.5 0-10-4.5-10-10V89.6c0-5.5 4.5-10 10-10s10 4.5 10 10v19.9c-.1 5.5-4.5 10-10 10zm0-79.7c-5.5 0-10-4.5-10-10V10c0-5.5 4.5-10 10-10s10 4.5 10 10v19.9c-.1 5.5-4.5 9.9-10 9.9z" opacity=".5"/><defs><path id="SVGID_1_" d="M0 3.7h59.7v37.7H0z"/></defs><clipPath id="SVGID_2_"><use xlink:href="#SVGID_1_" overflow="visible"/></clipPath><g clip-path="url(#SVGID_2_)"><defs><path id="SVGID_3_" d="M-14305.4-18423.2h28670.6v20388h-28670.6z"/></defs><clipPath id="SVGID_4_"><use xlink:href="#SVGID_3_" overflow="visible"/></clipPath><g clip-path="url(#SVGID_4_)"><path class="st1" d="M-99.6-95.9h258.8v236.8H-99.6z"/></g></g></svg>