<svg version="1.1" id="Layer_1" xmlns="http://www.w3.org/2000/svg" x="0" y="0" viewBox="0 0 296.5 296.5" xml:space="preserve"><path d="M18.4 296.5c-4.7 0-9.4-1.8-13-5.4-7.2-7.2-7.2-18.8 0-26L80 190.5c7.2-7.2 18.8-7.2 26 0 7.2 7.2 7.2 18.8 0 26l-74.6 74.6c-3.6 3.6-8.3 5.4-13 5.4zm259.8 0c-4.7 0-9.4-1.8-13-5.4L5.4 31.4c-7.2-7.2-7.2-18.8 0-26s18.8-7.2 26 0l259.8 259.8c7.2 7.2 7.2 18.8 0 26-3.6 3.5-8.3 5.3-13 5.3zm-74.7-185.1c-4.7 0-9.4-1.8-13-5.4-7.2-7.2-7.2-18.8 0-26l74.7-74.7c7.2-7.2 18.8-7.2 26 0 7.2 7.2 7.2 18.8 0 26L216.5 106c-3.6 3.6-8.3 5.4-13 5.4z" fill="#fff"/></svg>