<svg version="1.1" id="Layer_1" xmlns="http://www.w3.org/2000/svg" xmlns:xlink="http://www.w3.org/1999/xlink" x="0" y="0" viewBox="0 0 505.2 16.1" xml:space="preserve"><style type="text/css">.st1{fill:#080b10}</style><path class="st1" d="M502.5 10.7h-5.4c-1.5 0-2.7-1.2-2.7-2.7s1.2-2.7 2.7-2.7h5.4c1.5 0 2.7 1.2 2.7 2.7s-1.2 2.7-2.7 2.7zm-21.5 0h-5.4c-1.5 0-2.7-1.2-2.7-2.7s1.2-2.7 2.7-2.7h5.4c1.5 0 2.7 1.2 2.7 2.7s-1.2 2.7-2.7 2.7zm-21.5 0h-5.4c-1.5 0-2.7-1.2-2.7-2.7s1.2-2.7 2.7-2.7h5.4c1.5 0 2.7 1.2 2.7 2.7s-1.2 2.7-2.7 2.7zm-21.5 0h-5.4c-1.5 0-2.7-1.2-2.7-2.7s1.2-2.7 2.7-2.7h5.4c1.5 0 2.7 1.2 2.7 2.7s-1.2 2.7-2.7 2.7zm-21.5 0h-5.4c-1.5 0-2.7-1.2-2.7-2.7s1.2-2.7 2.7-2.7h5.4c1.5 0 2.7 1.2 2.7 2.7s-1.2 2.7-2.7 2.7zm-21.5 0h-5.4c-1.5 0-2.7-1.2-2.7-2.7s1.2-2.7 2.7-2.7h5.4c1.5 0 2.7 1.2 2.7 2.7s-1.2 2.7-2.7 2.7zm-21.5 0h-5.4c-1.5 0-2.7-1.2-2.7-2.7s1.2-2.7 2.7-2.7h5.4c1.5 0 2.7 1.2 2.7 2.7s-1.2 2.7-2.7 2.7zm-21.5 0h-5.4c-1.5 0-2.7-1.2-2.7-2.7s1.2-2.7 2.7-2.7h5.4c1.5 0 2.7 1.2 2.7 2.7s-1.2 2.7-2.7 2.7zm-21.5 0h-5.4c-1.5 0-2.7-1.2-2.7-2.7s1.2-2.7 2.7-2.7h5.4c1.5 0 2.7 1.2 2.7 2.7s-1.2 2.7-2.7 2.7zm-21.5 0h-5.4c-1.5 0-2.7-1.2-2.7-2.7s1.2-2.7 2.7-2.7h5.4c1.5 0 2.7 1.2 2.7 2.7s-1.2 2.7-2.7 2.7zm-21.5 0h-5.4c-1.5 0-2.7-1.2-2.7-2.7s1.2-2.7 2.7-2.7h5.4c1.5 0 2.7 1.2 2.7 2.7s-1.2 2.7-2.7 2.7zm-21.5 0h-5.4c-1.5 0-2.7-1.2-2.7-2.7s1.2-2.7 2.7-2.7h5.4c1.5 0 2.7 1.2 2.7 2.7s-1.2 2.7-2.7 2.7zm-21.5 0h-5.4c-1.5 0-2.7-1.2-2.7-2.7s1.2-2.7 2.7-2.7h5.4c1.5 0 2.7 1.2 2.7 2.7s-1.2 2.7-2.7 2.7zm-21.5 0h-5.4c-1.5 0-2.7-1.2-2.7-2.7s1.2-2.7 2.7-2.7h5.4c1.5 0 2.7 1.2 2.7 2.7s-1.2 2.7-2.7 2.7zm-21.5 0h-5.4c-1.5 0-2.7-1.2-2.7-2.7s1.2-2.7 2.7-2.7h5.4c1.5 0 2.7 1.2 2.7 2.7s-1.2 2.7-2.7 2.7zm-21.5 0h-5.4c-1.5 0-2.7-1.2-2.7-2.7s1.2-2.7 2.7-2.7h5.4c1.5 0 2.7 1.2 2.7 2.7s-1.2 2.7-2.7 2.7zm-21.5 0h-5.4c-1.5 0-2.7-1.2-2.7-2.7s1.2-2.7 2.7-2.7h5.4c1.5 0 2.7 1.2 2.7 2.7s-1.2 2.7-2.7 2.7zm-21.5 0h-5.4c-1.5 0-2.7-1.2-2.7-2.7s1.2-2.7 2.7-2.7h5.4c1.5 0 2.7 1.2 2.7 2.7s-1.2 2.7-2.7 2.7zm-21.5 0h-5.4c-1.5 0-2.7-1.2-2.7-2.7s1.2-2.7 2.7-2.7h5.4c1.5 0 2.7 1.2 2.7 2.7s-1.2 2.7-2.7 2.7zm-21.4 0h-5.4C87.2 10.7 86 9.5 86 8s1.2-2.7 2.7-2.7h5.4c1.5 0 2.7 1.2 2.7 2.7s-1.3 2.7-2.7 2.7zm-21.5 0h-5.4c-1.5 0-2.7-1.2-2.7-2.7s1.2-2.7 2.7-2.7h5.4c1.5 0 2.7 1.2 2.7 2.7s-1.3 2.7-2.7 2.7zm-21.5 0h-5.4C44.2 10.7 43 9.5 43 8s1.2-2.7 2.7-2.7h5.4c1.5 0 2.7 1.2 2.7 2.7s-1.3 2.7-2.7 2.7zm-21.5 0h-5.4c-1.5 0-2.7-1.2-2.7-2.7s1.2-2.7 2.7-2.7h5.4c1.5 0 2.7 1.2 2.7 2.7s-1.3 2.7-2.7 2.7zm-21.5 0H2.7C1.2 10.7 0 9.5 0 8.1s1.2-2.7 2.7-2.7h5.4c1.5 0 2.7 1.2 2.7 2.7s-1.3 2.6-2.7 2.6z" opacity=".5"/><defs><path id="SVGID_1_" d="M1 0h10.2v16.1H1z"/></defs><clipPath id="SVGID_2_"><use xlink:href="#SVGID_1_" overflow="visible"/></clipPath><g clip-path="url(#SVGID_2_)"><defs><path id="SVGID_3_" d="M-321.5-11570.9h7739v33342.2h-7739z"/></defs><clipPath id="SVGID_4_"><use xlink:href="#SVGID_3_" overflow="visible"/></clipPath><g clip-path="url(#SVGID_4_)"><path class="st1" d="M-25.9-26.9H38V43h-63.9z"/></g></g></svg>