<?xml version="1.0" encoding="utf-8"?>
<!-- Generator: Adobe Illustrator 22.1.0, SVG Export Plug-In . SVG Version: 6.00 Build 0)  -->
<svg version="1.1" id="Layer_1" xmlns="http://www.w3.org/2000/svg" xmlns:xlink="http://www.w3.org/1999/xlink" x="0px" y="0px"
	 viewBox="0 0 296.5 296.5" style="enable-background:new 0 0 296.5 296.5;" xml:space="preserve">
<style type="text/css">
	.st0{fill:#FFFFFF;}
</style>
<g>
	<path class="st0" d="M18.4,296.5c-4.7,0-9.4-1.8-13-5.4c-7.2-7.2-7.2-18.8,0-26L80,190.5c7.2-7.2,18.8-7.2,26,0
		c7.2,7.2,7.2,18.8,0,26l-74.6,74.6C27.8,294.7,23.1,296.5,18.4,296.5z"/>
</g>
<g>
	<path class="st0" d="M278.2,296.5c-4.7,0-9.4-1.8-13-5.4L5.4,31.4c-7.2-7.2-7.2-18.8,0-26s18.8-7.2,26,0l259.8,259.8
		c7.2,7.2,7.2,18.8,0,26C287.6,294.7,282.9,296.5,278.2,296.5z"/>
</g>
<g>
	<path class="st0" d="M203.5,111.4c-4.7,0-9.4-1.8-13-5.4c-7.2-7.2-7.2-18.8,0-26l74.7-74.7c7.2-7.2,18.8-7.2,26,0
		c7.2,7.2,7.2,18.8,0,26L216.5,106C212.9,109.6,208.2,111.4,203.5,111.4z"/>
</g>
</svg>
