<svg version="1.1" id="Layer_1" xmlns="http://www.w3.org/2000/svg" x="0" y="0" viewBox="0 0 450 450" xml:space="preserve"><style type="text/css">.st0{fill:#36f461}</style><path class="st0" d="M327.1 143.2L183.2 287l-60.3-60.3c-3.4-3.4-8.9-3.4-12.2 0-3.4 3.4-3.4 8.9 0 12.2l66.4 66.4c1.6 1.6 3.8 2.5 6.1 2.5s4.5-.9 6.1-2.5l150-150c3.4-3.4 3.4-8.9 0-12.2-3.4-3.3-8.9-3.3-12.2.1z"/><path class="st0" d="M225 0C100.9 0 0 100.9 0 225s100.9 225 225 225 225-100.9 225-225S349.1 0 225 0zm0 432.7c-114.5 0-207.7-93.2-207.7-207.7S110.5 17.3 225 17.3 432.7 110.5 432.7 225 339.5 432.7 225 432.7z"/></svg>