<svg version="1.1" id="Layer_1" xmlns="http://www.w3.org/2000/svg" x="0" y="0" viewBox="0 0 296.7 303.7" xml:space="preserve"><path d="M89.6 141.3H10.4C4.6 141.3 0 146 0 151.9c0 5.9 4.6 10.6 10.4 10.6h79.3c5.7 0 10.4-4.7 10.4-10.6-.1-5.9-4.7-10.6-10.5-10.6zM148.4 0C142.6 0 138 4.7 138 10.6v282.5c0 5.9 4.6 10.6 10.4 10.6 5.7 0 10.4-4.7 10.4-10.6V10.6C158.7 4.7 154.1 0 148.4 0zm138 141.3h-79.3c-5.7 0-10.4 4.7-10.4 10.6 0 5.8 4.6 10.6 10.4 10.6h79.3c5.7 0 10.4-4.7 10.4-10.6-.1-5.9-4.7-10.6-10.4-10.6z" fill="#fff"/></svg>