<?xml version="1.0" encoding="utf-8"?>
<!-- Generator: Adobe Illustrator 22.1.0, SVG Export Plug-In . SVG Version: 6.00 Build 0)  -->
<svg version="1.1" id="Layer_1" xmlns="http://www.w3.org/2000/svg" xmlns:xlink="http://www.w3.org/1999/xlink" x="0px" y="0px"
	 viewBox="0 0 204.7 244" style="enable-background:new 0 0 204.7 244;" xml:space="preserve">
<style type="text/css">
	.st0{fill:#FFFFFF;}
</style>
<path class="st0" d="M132.6,0c6.4,2.3,13.3,2.8,19.6,5.5c31,13.2,48.3,36.5,52.1,69.9c0.5,4.1-0.8,5.7-5.1,5.7
	c-10.5-0.1-21,0-31.5,0.3c-3.2,0.1-4.4-1-4.9-4c-4-23.2-19.8-36.4-43.3-36.4c-24,0-48,0.1-71.9-0.1c-4.5,0-6,1.2-6,5.9
	c0.2,50.3,0.1,100.6,0,150.9c0,4.5,1.5,5.7,5.8,5.6c10-0.2,20,0.1,30-0.2c4.2-0.1,5.4,1.4,5.4,5.5c-0.2,11.8-0.1,23.6-0.1,35.5
	c-27.3,0-54.7,0-82,0c-0.9-1.7-0.5-3.6-0.5-5.4c0-77.7,0-155.5,0-233.2c0-1.8-0.5-3.7,0.5-5.4C44.6,0,88.6,0,132.6,0z"/>
<path class="st0" d="M125.6,243.2c-3.2,0.1-4.2-1.6-4.2-4.7c0.1-10.4,0.1-20.9,0-31.3c0-2.1,0.2-4,2.3-5
	c21.4-0.7,39.3-18.8,39.7-40.4c0.2-11.5,0.2-23,0-34.5c-0.1-4.1,1.3-5.6,5.4-5.5c10.3,0.2,20.6,0.1,31,0.1c2.3,0,4.5,0.2,4.5,3.3
	c-0.3,16.6,1.6,33.4-1.4,49.8C196.2,213.2,166,239.6,125.6,243.2z"/>
</svg>
