<svg version="1.1" id="svg4217" xmlns="http://www.w3.org/2000/svg" x="0" y="0" viewBox="0 0 1011.5 209" xml:space="preserve"><path id="path3664" d="M515.2 199.7c-35.6 3-53-29.9-55.8-61.6-3.7-43.4 19.2-60.5 41.4-62.4 33.9-2.9 52.5 29 55.2 61.9 3.7 42.1-17.4 60.1-40.8 62.1m-6.8-133.3c-44.7 0-76.2 31.5-76.2 72.5 0 38.9 28.4 70.1 76.2 70.1 43.5 0 75-30.3 75-71.9 0-37.7-25.3-70.7-75-70.7m371.2 3.4c-8.7.6-15.2.8-22.1.8-7 0-14.1-.3-23.3-.8-3.1 1.2-3.4 6.1-.7 7.6l6.5 1c7.5 1 6.8 3.7 2.2 12.3l-12.3 22.6c-5.2 9.8-9.9 17.2-14.9 25.6-4.6-8-9.3-16.4-13.8-25.6l-11.5-21.9c-5-9.7-4-11.4 2.7-13l4.4-1c3.1-1.5 2.2-6.5-.3-7.6-9.9.6-16.9.8-26.2.8-11.1 0-18.3-.3-28.4-.8-2.4.8-3 5.8-1 7.6l8 1.5c8 1.6 11.2 4.4 17.6 16.7l22.5 41.7c7.8 14.2 8.6 16.6 8.6 26.3v11.7c0 18.3-1.2 20.1-14.5 21.6l-7.7 1c-2.2 1.5-1.9 6.8.6 7.7 13.9-.6 23.5-.9 33.4-.9 9.5 0 19.7.3 33.3.9 2.5-.9 2.9-6.2.7-7.7l-7.7-1c-13.2-1.5-14.6-3.4-14.6-21.6v-16.7c0-8.9.7-12 11.8-29.6L852 98.1c9.6-15.4 11.1-17.3 20.7-19.1l7.4-1.5c2.6-1.5 2-6.8-.5-7.7M664.4 197.3c-23.6 0-26.6-9.9-26.6-29.6V94.2c0-6.8 0-10.8 1.8-12 2.5-2.1 8.4-3.4 18.6-3.4 34.8 0 61.4 19.8 61.4 57.7-.1 37.6-18.3 60.8-55.2 60.8m40-120.7c-14.5-5-29.7-6.8-46.9-6.8-24.9 0-42.3.6-59.6 1.8-2.7.9-3.1 6.8-.3 7.7l9.3 1.2c7.1.9 7.4 6.1 7.4 26.2v65.5c0 21.3-1.2 22.5-14.5 24.6l-5.9.9c-2.1 1.6-1.8 6.9.6 7.7 12.1-.5 21.7-.8 31.6-.8 4.6 0 10.5.3 16.6.6 6.5.7 13.7 1 20.5 1 15.4 0 32.7-2.4 46.6-9.6 24.7-12.6 37.4-35.2 37.4-59.6-.2-28.3-14.7-50.8-42.8-60.4m282 54l-19.1-9.9c-12.4-6.5-20.6-13.3-20.6-24.3 0-10.5 6.7-21.1 24.9-21.1s26.2 15.8 28.8 26.6c1.5 2.1 7 1.8 8-.6.2-13.3-2-25.1-4.4-30.3-10.5-1.8-17.9-4.6-28.8-4.6-31.1 0-48.5 15.7-48.5 38.3 0 17.3 12.7 29.3 27.5 37l13.9 7.1c17.7 9 21.7 19.2 21.7 29 0 14.2-10.2 22.2-25.9 22.2-20.7 0-34.2-21.9-36.7-33.1-2.2-2.8-6.8-2.5-8 .7 0 16.4 3.7 27.5 6.5 31.8 4.3 3.1 16.7 9.6 35.5 9.6 30.6 0 50.3-15.1 50.3-39.2 0-20.7-14-33.6-25.1-39.2M933.8 30.4c0-16-11-29.6-23.8-29.6-12 0-14.8 8-14.8 12.7 0 5.8 4.1 8.3 8.3 8.6 5.9.3 15.4 5.5 15.4 17.3 0 12.6-12 21.3-23.4 26.5-1.5 2.2-.3 5.3 2.2 6.5 19.4-5.8 36.1-20.7 36.1-42M349.4 199.7c-35.6 3-53-29.9-55.8-61.6-3.7-43.4 19.2-60.5 41.4-62.4 33.9-2.9 52.5 29 55.3 61.9 3.6 42.1-17.6 60.1-40.9 62.1m-6.9-133.3c-44.8 0-76.2 31.5-76.2 72.5 0 38.9 28.4 70.1 76.2 70.1 43.5 0 75-30.3 75-71.9.1-37.7-25.2-70.7-75-70.7M252.2 197c-14.5-1.5-14.2-9.5-15.1-24.9-2.5-44.6-2.8-101.6-3.4-134.4-.3-21.6 2.2-27.1 21.6-29.4l6.5-.6c1.5-1.3 1.5-6.5-.3-7.7-9.7.6-19.8.9-27.5.9-6.2 0-12.7 0-23.2-.9-.6 14.2-9.2 31.2-23.4 59.3l-29 58.9c-7.7 15.8-15.4 31.9-23.7 46.4h-.6c-7.5-13.6-14.2-27.8-21.3-42.3L77.4 50.9C67.9 31.2 60.1 12 61.4 0 51.1.9 42.8.9 35.7.9 28 .9 20.6.6 11.3 0c-2.5 1.2-2.8 5.9-1.2 7.7l4.9.6c18.8 3.1 21.4 7.1 20.7 26.6-.6 17-1.9 43.2-3.4 68.8-1.8 30.6-3.3 47.6-5.2 68-1.9 21.6-6.2 23.8-19.2 25.3l-6.8.9c-1.9 1.6-1.2 6.3.7 7.7 10.5-.5 21.6-.8 31.4-.8 11.7 0 23.8.3 34.3.8 2.2-.8 2.5-5.8.3-7.7l-11.7-.9c-12.1-.9-13.9-5.8-13.9-28.7 0-26.2 1.2-53.8 2.1-72.6 1-17.9 1.9-35.9 3.1-55h.6C54.9 54.9 61.4 71 67.9 85.2l27.7 59.6c7.1 15.1 21.9 45.4 27.3 61.8.6 1 2.2 1.2 2.7 1.2 1.2 0 2.5-.3 3-1.2 5.6-14.2 19.5-43.2 33.4-70.4l27.5-54.1c6.2-12 17.9-36.7 20-40.1h.6l1 128.7c0 19.8 0 24.7-15.1 26.2l-8.9.9c-1.9 1.9-1.6 6.3.6 7.7 12.6-.5 26.5-.8 37.3-.8 11.1 0 23.8.3 36.5.8 2.1-1.2 2.4-5.8.6-7.7l-9.9-.8z" fill="#fff"/></svg>