<?xml version="1.0" encoding="utf-8"?>
<!-- Generator: Adobe Illustrator 22.1.0, SVG Export Plug-In . SVG Version: 6.00 Build 0)  -->
<svg version="1.1" id="svg4217" xmlns:svg="http://www.w3.org/2000/svg"
	 xmlns="http://www.w3.org/2000/svg" xmlns:xlink="http://www.w3.org/1999/xlink" x="0px" y="0px" viewBox="0 0 1011.5 209"
	 style="enable-background:new 0 0 1011.5 209;" xml:space="preserve">
<style type="text/css">
	.st0{fill:#FFFFFF;}
</style>
<path id="path3664" class="st0" d="M515.2,199.7c-35.6,3-53-29.9-55.8-61.6c-3.7-43.4,19.2-60.5,41.4-62.4
	c33.9-2.9,52.5,29,55.2,61.9C559.7,179.7,538.6,197.7,515.2,199.7 M508.4,66.4c-44.7,0-76.2,31.5-76.2,72.5
	c0,38.9,28.4,70.1,76.2,70.1c43.5,0,75-30.3,75-71.9C583.4,99.4,558.1,66.4,508.4,66.4 M879.6,69.8c-8.7,0.6-15.2,0.8-22.1,0.8
	c-7,0-14.1-0.3-23.3-0.8c-3.1,1.2-3.4,6.1-0.7,7.6l6.5,1c7.5,1,6.8,3.7,2.2,12.3l-12.3,22.6c-5.2,9.8-9.9,17.2-14.9,25.6
	c-4.6-8-9.3-16.4-13.8-25.6l-11.5-21.9c-5-9.7-4-11.4,2.7-13l4.4-1c3.1-1.5,2.2-6.5-0.3-7.6c-9.9,0.6-16.9,0.8-26.2,0.8
	c-11.1,0-18.3-0.3-28.4-0.8c-2.4,0.8-3,5.8-1,7.6l8,1.5c8,1.6,11.2,4.4,17.6,16.7l22.5,41.7c7.8,14.2,8.6,16.6,8.6,26.3v11.7
	c0,18.3-1.2,20.1-14.5,21.6l-7.7,1c-2.2,1.5-1.9,6.8,0.6,7.7c13.9-0.6,23.5-0.9,33.4-0.9c9.5,0,19.7,0.3,33.3,0.9
	c2.5-0.9,2.9-6.2,0.7-7.7l-7.7-1c-13.2-1.5-14.6-3.4-14.6-21.6v-16.7c0-8.9,0.7-12,11.8-29.6l19.1-30.9
	c9.6-15.4,11.1-17.3,20.7-19.1l7.4-1.5C882.7,76,882.1,70.7,879.6,69.8 M664.4,197.3c-23.6,0-26.6-9.9-26.6-29.6V94.2
	c0-6.8,0-10.8,1.8-12c2.5-2.1,8.4-3.4,18.6-3.4c34.8,0,61.4,19.8,61.4,57.7C719.5,174.1,701.3,197.3,664.4,197.3 M704.4,76.6
	c-14.5-5-29.7-6.8-46.9-6.8c-24.9,0-42.3,0.6-59.6,1.8c-2.7,0.9-3.1,6.8-0.3,7.7l9.3,1.2c7.1,0.9,7.4,6.1,7.4,26.2v65.5
	c0,21.3-1.2,22.5-14.5,24.6l-5.9,0.9c-2.1,1.6-1.8,6.9,0.6,7.7c12.1-0.5,21.7-0.8,31.6-0.8c4.6,0,10.5,0.3,16.6,0.6
	c6.5,0.7,13.7,1,20.5,1c15.4,0,32.7-2.4,46.6-9.6c24.7-12.6,37.4-35.2,37.4-59.6C747,108.7,732.5,86.2,704.4,76.6 M986.4,130.6
	l-19.1-9.9c-12.4-6.5-20.6-13.3-20.6-24.3c0-10.5,6.7-21.1,24.9-21.1c18.2,0,26.2,15.8,28.8,26.6c1.5,2.1,7,1.8,8-0.6
	c0.2-13.3-2-25.1-4.4-30.3c-10.5-1.8-17.9-4.6-28.8-4.6c-31.1,0-48.5,15.7-48.5,38.3c0,17.3,12.7,29.3,27.5,37l13.9,7.1
	c17.7,9,21.7,19.2,21.7,29c0,14.2-10.2,22.2-25.9,22.2c-20.7,0-34.2-21.9-36.7-33.1c-2.2-2.8-6.8-2.5-8,0.7
	c0,16.4,3.7,27.5,6.5,31.8c4.3,3.1,16.7,9.6,35.5,9.6c30.6,0,50.3-15.1,50.3-39.2C1011.5,149.1,997.5,136.2,986.4,130.6 M933.8,30.4
	c0-16-11-29.6-23.8-29.6c-12,0-14.8,8-14.8,12.7c0,5.8,4.1,8.3,8.3,8.6c5.9,0.3,15.4,5.5,15.4,17.3c0,12.6-12,21.3-23.4,26.5
	c-1.5,2.2-0.3,5.3,2.2,6.5C917.1,66.6,933.8,51.7,933.8,30.4 M349.4,199.7c-35.6,3-53-29.9-55.8-61.6c-3.7-43.4,19.2-60.5,41.4-62.4
	c33.9-2.9,52.5,29,55.3,61.9C393.9,179.7,372.7,197.7,349.4,199.7 M342.5,66.4c-44.8,0-76.2,31.5-76.2,72.5
	c0,38.9,28.4,70.1,76.2,70.1c43.5,0,75-30.3,75-71.9C417.6,99.4,392.3,66.4,342.5,66.4 M252.2,197c-14.5-1.5-14.2-9.5-15.1-24.9
	c-2.5-44.6-2.8-101.6-3.4-134.4c-0.3-21.6,2.2-27.1,21.6-29.4l6.5-0.6c1.5-1.3,1.5-6.5-0.3-7.7c-9.7,0.6-19.8,0.9-27.5,0.9
	c-6.2,0-12.7,0-23.2-0.9c-0.6,14.2-9.2,31.2-23.4,59.3l-29,58.9c-7.7,15.8-15.4,31.9-23.7,46.4h-0.6c-7.5-13.6-14.2-27.8-21.3-42.3
	L77.4,50.9C67.9,31.2,60.1,12,61.4,0C51.1,0.9,42.8,0.9,35.7,0.9C28,0.9,20.6,0.6,11.3,0c-2.5,1.2-2.8,5.9-1.2,7.7L15,8.3
	c18.8,3.1,21.4,7.1,20.7,26.6c-0.6,17-1.9,43.2-3.4,68.8c-1.8,30.6-3.3,47.6-5.2,68c-1.9,21.6-6.2,23.8-19.2,25.3l-6.8,0.9
	c-1.9,1.6-1.2,6.3,0.7,7.7c10.5-0.5,21.6-0.8,31.4-0.8c11.7,0,23.8,0.3,34.3,0.8c2.2-0.8,2.5-5.8,0.3-7.7L56.1,197
	c-12.1-0.9-13.9-5.8-13.9-28.7c0-26.2,1.2-53.8,2.1-72.6c1-17.9,1.9-35.9,3.1-55h0.6C54.9,54.9,61.4,71,67.9,85.2l27.7,59.6
	c7.1,15.1,21.9,45.4,27.3,61.8c0.6,1,2.2,1.2,2.7,1.2c1.2,0,2.5-0.3,3-1.2c5.6-14.2,19.5-43.2,33.4-70.4l27.5-54.1
	c6.2-12,17.9-36.7,20-40.1h0.6l1,128.7c0,19.8,0,24.7-15.1,26.2l-8.9,0.9c-1.9,1.9-1.6,6.3,0.6,7.7c12.6-0.5,26.5-0.8,37.3-0.8
	c11.1,0,23.8,0.3,36.5,0.8c2.1-1.2,2.4-5.8,0.6-7.7L252.2,197z"/>
</svg>
