<svg version="1.1" id="Layer_1" xmlns="http://www.w3.org/2000/svg" x="0" y="0" viewBox="0 0 317.6 64.6" xml:space="preserve"><g id="layer1"><path id="path33" d="M13.4 0v1.6h5.9v31c0 9.3-2.6 11.9-8.3 11.9-3.6 0-4.2-2.8-4.2-4.2 0-3.4-.2-5.5-3.3-5.5C.4 34.9 0 38 0 39c0 4.3 1.9 7.5 10.4 7.5 10.1 0 15.5-3.4 15.5-14.7V1.6H32V0H13.4m18.5 40.4c-.7.7-1.1 1.6-1.1 2.6s.4 1.9 1.1 2.5c.7.7 1.6 1.1 2.6 1.1s1.9-.3 2.6-1.1c.7-.7 1.1-1.5 1.1-2.5s-.4-1.9-1.1-2.6c-.7-.7-1.6-1-2.6-1-1-.1-1.9.3-2.6 1m41.5 0c-.7.7-1.1 1.6-1.1 2.6s.3 1.9 1.1 2.5c.8.7 1.6 1.1 2.6 1.1s1.9-.3 2.6-1.1c.7-.7 1.1-1.5 1.1-2.5s-.4-1.9-1.1-2.6c-.7-.7-1.6-1-2.6-1-1-.1-1.9.3-2.6 1M44.7 0v1.6h5.4V37c0 2.8-.2 3.5-.5 4.3-.3.9-1.1 1.6-2.2 2.1-.8.3-2.1.5-3.8.6v1.5h19.7v-1.4c-1.7 0-2.9-.2-3.8-.5-1.2-.5-1.9-1.1-2.3-2.1-.3-.8-.5-1.5-.5-2.9V26.3h4.9c14.1 0 18.1-5.6 18.1-13.2C79.8 5.4 77.3 0 63 0H44.7m12.1 1.8h3.4c10.9 0 13.3 4.5 13.3 11.8 0 7.3-4.3 11.1-12.9 11.1h-3.7V1.8M130.8.1c-.1.4-13.8 34.6-13.8 34.6l-.3.2-.3-.2S101.8.6 101.6.1H88.7v1.5h5.6v35.1l-.1 3.2c-.1.8-.4 1.6-.8 2.2-.4.7-1.1 1.1-2.1 1.5-.6.2-1.5.3-2.6.4v1.5h12.8v-1.4c-1.1 0-1.6-.2-2.2-.4-.9-.3-1.6-.8-2.1-1.4-.4-.6-.7-1.4-.8-2.2l-.1-3.2V6.4h.7s16.5 38.6 16.7 39h1.4l15.6-38.6h.4v31.3c0 1.3-.1 2.4-.4 3.2-.3.9-1 1.6-1.9 2.1-.7.3-1.8.5-3.3.6v1.5h17.8V44c-1.4-.1-2.5-.3-3.3-.6-1-.5-1.7-1.2-2-2.2-.3-.8-.4-1.8-.4-3.1V1.6h4.7V.1h-11.5m15.8 29.4c0 16.2 12.6 17.2 15.3 17.2 5.4 0 15.6-3.3 15.6-17.5 0-11-6.5-17-15.3-17-9.6-.1-15.6 6.3-15.6 17.3m7.1.2c0-8.9.6-15.5 8.3-15.5 8.3 0 8.4 6.9 8.4 14.9 0 11.6-2 15.6-8.4 15.6-7.2 0-8.3-3.6-8.3-15m39.6-10.3h-.4s-.8-5-1.1-6.5h-11v1.7h6V37c0 2.2-.2 3.8-.7 4.7-.6 1.1-2 1.7-4.2 1.7h-1v2h18.5v-2h-1c-2.4 0-3.5-.5-4.1-1.6-.6-.9-.9-2.5-.9-4.8V25.4c0-3.9 3-8.4 6.5-8.4 3.7 0 3.6 5.7 7.8 3.4 2.3-1.2 1.9-7.8-5.2-7.8-5.8 0-7.6 3.4-9.2 6.8m57.7-4.8c-2.1 1.6-2.9 3.1-2.9 5.2 0 1 .3 1.7.8 2.2.6.5 1.2.7 2 .7 1.8 0 2.9-.9 3.3-3.3.3-1.8.7-2.8 1.6-3.7.9-1 2.4-1.5 4.4-1.5 2.3 0 4 .6 4.9 1.9.8 1.2 1.3 2.8 1.3 4.7v5.4c-5.9.5-19.9 1.7-19.3 12.3.2 4.2 3.9 7.8 8.7 7.8 5.2 0 8.6-3 10.8-5.4.4 2.3 2.5 5 6.3 5 4.3 0 6.9-2.1 7.2-7.4H279c-.3 2.3-1.7 3.5-2.9 3.5-2 0-2.6-1.1-2.8-2.9l-.1-4.2V21.4c0-2.9-.5-4.9-2.2-6.6-1.7-1.7-5-2.6-9.8-2.6-4.7-.1-8.1.8-10.2 2.4m2.5 22.6c0-6 8.3-9.1 12.8-9.1v10.4l-.1.3-.2.2c-3.2 2.9-5.6 3.9-7.3 3.9-4.6 0-5.2-3.8-5.2-5.7m39.4-18.4h-.6l-1.2-5.9h-10v1.7c1.9.1 5 .1 5 .1V37c0 1.7-.1 3-.4 3.8-.3 1-.9 1.7-1.9 2.1-.6.3-1.6.4-2.8.5v2h16v-2.1c-1.6-.1-2.7-.6-3.3-1.4-.6-.9-.9-2.4-.9-4.6v-8.6c0-3.6 0-7 1.2-9.2 1.3-2.3 3.7-3.6 6.4-3.6 2.4 0 3.7.8 4.5 2.3.7 1.3 1.1 5 1.1 7.6l-.1 10.6c0 1.8.2 3.1.1 3.9-.2 1-.6 1.7-1.4 2.2-.6.4-1.4.6-2.6.7v2.1h15.4v-2c-1.9-.1-3.2-.6-3.8-1.5-.6-.9-1.2-2.5-1.2-4.8l.1-14.7c0-2.1-.3-3.9-1.1-5.4-.8-1.5-1.9-2.6-3.3-3.3-1.4-.7-3.1-1.1-4.9-1.1-6.3 0-8.9 4-10.3 6.3m-51.4-8c-1 .3-1.6 1.2-1.9 2.6-.3 1.3-.8 2.1-1.4 2.3-.7.2-1.4.1-2.3-.2-1.7-1.5-4.8-3.4-10.4-3.4-9 0-13 6.4-13 12.3 0 6.8 2.6 10.2 8.4 11.4.4.1.4.5 0 .5-4.9 1-9.3 2.4-9.3 7.1 0 2.8 1.6 4.4 3.7 5.2 2.3.9 5.5 1.4 9.6 1.5 3.5 0 6 .2 7.7.4 1.8.2 3.2.7 4.2 1.5 1.1.8 1.6 2 1.6 3.6 0 2.2-1.2 3.9-3.5 5.2-2.2 1.2-5.1 1.8-8.8 1.8-3.1 0-5.7-.3-8-1.8-1.7-1.1-2.1-3.2-1.7-4.7.3-1.5-.2-3.1-2-3.4-1-.2-2.2.4-2.8 1.2-.5.8-.7 1.8-.7 3 0 3.9 3 5.7 5.3 6.3 3.5 1.1 5.8 1.3 9 1.3 4.2 0 7.7-.6 10.1-1.9 2.5-1.2 4.2-2.8 5.1-4.5 1-1.8 1.4-3.6 1.4-5.3 0-2.3-.5-4.2-1.5-5.6-3.2-4.4-7.8-3.9-18-4.3-4.9 0-5.9-.9-5.9-2.4 0-2.2 1.8-3.1 9-4.2 7-1.1 13.6-3.7 13.6-12.3 0-2.5-.6-4.6-1.3-6.1 1.5.3 2.8.3 4-.1 1.4-.4 2.3-1.1 2.9-2.1.5-1 .7-1.9.4-2.9-.5-1.5-1.3-2.3-2.4-2.3-.3.2-.7.2-1.1.3M219 24.4c0-6 2.1-10.5 6.6-10.5 5.2 0 6.8 4.1 6.8 10.4 0 9-2.8 10.2-6.8 10.2-4.2 0-6.6-1.6-6.6-10.1" fill="#fff"/></g></svg>