<svg version="1.1" id="Layer_1" xmlns="http://www.w3.org/2000/svg" x="0" y="0" viewBox="0 0 104 104" xml:space="preserve"><style type="text/css">.st0{fill:#fff}</style><linearGradient id="SVGID_1_" gradientUnits="userSpaceOnUse" x1="-334.975" y1="154.152" x2="-334.268" y2="153.445"><stop offset="0" stop-color="#20ac4b"/><stop offset=".983" stop-color="#19361a"/></linearGradient><path class="st0" d="M7.4 52c0 17.7 10.3 32.9 25.1 40.2L11.3 33.9C8.8 39.4 7.4 45.5 7.4 52zm74.7-2.2c0-5.5-2-9.3-3.7-12.3C76.1 33.8 74 30.7 74 27c0-4.1 3.1-7.9 7.5-7.9h.6C74.2 11.8 63.6 7.4 52 7.4c-15.6 0-29.3 8-37.3 20.1 1 0 2 .1 2.9.1 4.7 0 11.9-.6 11.9-.6 2.4-.1 2.7 3.4.3 3.7 0 0-2.4.3-5.1.4l16.2 48.3 9.8-29.3-7-19c-2.4-.1-4.7-.4-4.7-.4-2.4-.1-2.1-3.8.3-3.7 0 0 7.4.6 11.8.6 4.7 0 11.9-.6 11.9-.6 2.4-.1 2.7 3.4.3 3.7 0 0-2.4.3-5.1.4l16.1 48 4.5-14.9c2.2-5.8 3.3-10.6 3.3-14.4zm-29.3 6.1L39.4 94.8c4 1.2 8.2 1.8 12.6 1.8 5.2 0 10.2-.9 14.8-2.5l-.3-.6-13.7-37.6zm38.4-25.3c.2 1.4.3 2.9.3 4.6 0 4.5-.8 9.6-3.4 16L74.4 90.6C87.7 82.8 96.6 68.5 96.6 52c0-7.7-2-15-5.4-21.4z"/><path class="st0" d="M0 52c0 28.7 23.3 52 52 52s52-23.3 52-52S80.7 0 52 0 0 23.3 0 52zm2.4 0C2.4 24.6 24.6 2.4 52 2.4c27.4 0 49.6 22.3 49.6 49.6 0 27.4-22.3 49.6-49.6 49.6-27.4 0-49.6-22.2-49.6-49.6z"/></svg>