<svg version="1.1" id="Layer_1" xmlns="http://www.w3.org/2000/svg" x="0" y="0" viewBox="0 0 204.7 244" xml:space="preserve"><style type="text/css">.st0{fill:#fff}</style><path class="st0" d="M132.6 0c6.4 2.3 13.3 2.8 19.6 5.5 31 13.2 48.3 36.5 52.1 69.9.5 4.1-.8 5.7-5.1 5.7-10.5-.1-21 0-31.5.3-3.2.1-4.4-1-4.9-4-4-23.2-19.8-36.4-43.3-36.4-24 0-48 .1-71.9-.1-4.5 0-6 1.2-6 5.9.2 50.3.1 100.6 0 150.9 0 4.5 1.5 5.7 5.8 5.6 10-.2 20 .1 30-.2 4.2-.1 5.4 1.4 5.4 5.5-.2 11.8-.1 23.6-.1 35.5H.7c-.9-1.7-.5-3.6-.5-5.4V5.5C.2 3.7-.3 1.8.7.1 44.6 0 88.6 0 132.6 0z"/><path class="st0" d="M125.6 243.2c-3.2.1-4.2-1.6-4.2-4.7.1-10.4.1-20.9 0-31.3 0-2.1.2-4 2.3-5 21.4-.7 39.3-18.8 39.7-40.4.2-11.5.2-23 0-34.5-.1-4.1 1.3-5.6 5.4-5.5 10.3.2 20.6.1 31 .1 2.3 0 4.5.2 4.5 3.3-.3 16.6 1.6 33.4-1.4 49.8-6.7 38.2-36.9 64.6-77.3 68.2z"/></svg>