<svg version="1.1" id="Layer_1" xmlns="http://www.w3.org/2000/svg" x="0" y="0" viewBox="0 0 578 139.6" xml:space="preserve"><path d="M515.8 47c3.3 0 6-1.7 6.3-3.9l3.2-36.5c0-3.6-4.2-6.6-9.5-6.6s-9.5 3-9.5 6.6l3.2 36.5c.4 2.2 3.1 3.9 6.3 3.9zm-19.7 11.4c1.6-2.8 1.5-6-.2-7.4l-30-21.1c-3.1-1.8-7.8.4-10.5 5s-2.2 9.7.9 11.5l33.2 15.5c2.1.8 5-.7 6.6-3.5zm39.5 0c1.6 2.8 4.5 4.3 6.5 3.5l33.2-15.5c3.1-1.8 3.6-6.9.9-11.5s-7.4-6.8-10.5-5l-30 21.1c-1.6 1.4-1.8 4.6-.1 7.4zm-19.8 34.2c3.3 0 6 1.7 6.3 3.9l3.2 36.5c0 3.6-4.2 6.6-9.5 6.6s-9.5-3-9.5-6.6l3.2-36.5c.4-2.2 3.1-3.9 6.3-3.9zm19.8-11.4c1.6-2.8 4.5-4.3 6.5-3.5l33.2 15.5c3.1 1.8 3.6 7 .9 11.6s-7.4 6.8-10.5 5l-30-21c-1.6-1.6-1.8-4.8-.1-7.6zm-39.5 0c1.6 2.8 1.5 6-.2 7.4l-30 21c-3.1 1.8-7.8-.4-10.5-5s-2.2-9.7.9-11.6l33.2-15.5c2.1-.6 5 .9 6.6 3.7zM342.9 74c0-13.8-5.9-25.9-25.8-25.9-10.2 0-18.3 2.9-22.8 5.4l3.2 11.1c4-2.6 10.5-4.7 16.6-4.7 10.1 0 11.8 5.7 11.8 9.4v.9c-22 0-35.9 7.6-35.9 23.1 0 9.5 7.1 18.4 19.4 18.4 7.6 0 13.9-3 17.7-7.9h.4s2.5 10.5 16.4 6.5c-.7-4.4-1-9-1-14.7V74zm-16.4 14.6c0 1.1-.1 2.3-.4 3.3-1.3 4.2-5.6 7.8-11.1 7.8-4.6 0-8.2-2.6-8.2-8 0-8.4 9.2-10.7 19.7-10.6v7.5zM0 29.3s14.4 58.9 16.7 68.5c2.7 11.2 7.5 15.3 21.4 12.5l9-36.5c2.3-9.1 3.8-15.5 5.3-24.8h.3c1 9.3 2.5 15.7 4.4 24.8 0 0 3.7 16.6 5.5 25.3 1.9 8.7 7.1 14.2 20.7 11.2l21.4-81H87.4l-7.3 35c-2 10.2-3.7 18.2-5.1 27.5h-.2C73.6 82.6 72 74.9 70 65l-7.6-35.7h-18l-8.1 34.8c-2.3 10.6-4.5 19.1-5.8 28.1H30c-1.4-8.5-3.3-19.2-5.3-29.4 0 0-4.8-24.9-6.5-33.5H0zM153.7 74c0-13.8-5.9-25.9-25.8-25.9-10.2 0-18.3 2.9-22.8 5.4l3.2 11.1c4-2.6 10.5-4.7 16.6-4.7 10.1 0 11.8 5.7 11.8 9.4v.9c-22 0-35.9 7.6-35.9 23.1 0 9.5 7.1 18.4 19.4 18.4 7.6 0 13.9-3 17.7-7.9h.4s2.5 10.5 16.4 6.5c-.7-4.4-1-9-1-14.7V74zm-16.4 14.6c0 1.1-.1 2.3-.4 3.3-1.3 4.2-5.6 7.8-11.1 7.8-4.6 0-8.2-2.6-8.2-8 0-8.4 9.2-10.7 19.7-10.6v7.5zm43.8 4.5V29.3h-16.4v81h16.4zm215.2-63.8v59.8c0 8.2 1.6 14 4.9 17.5 2.9 3.1 7.7 5.1 13.4 5.1 4.9 0 9.6-.9 11.9-1.8l-.2-12.9c-1.7.4-3.6.7-6.2.7-5.6 0-7.5-3.6-7.5-11V63.9h14.3V48.4h-14.3V29.3h-16.3zm-42.4 20.1v60.9h17V79.1c0-1.7.1-3.1.4-4.5 1.3-6.5 6.2-10.7 13.4-10.7 2 0 3.4.2 4.9.4V48.4c-1.3-.3-2.2-.4-3.7-.4-6.3 0-13.5 4.1-16.6 12.9h-.5V49.4h-14.9zm-161.2 0v60.9h16.5V74.6c0-1.7.2-3.4.8-5 1.4-3.6 4.7-7.8 10-7.8 6.7 0 9.8 5.6 9.8 13.8v34.7h16.5V74.2c0-1.6.2-3.5.7-4.9 1.4-4.1 5-7.4 9.9-7.4 6.8 0 10 5.5 10 15.1v33.3h16.5V74.5c0-18.9-9.6-26.4-20.4-26.4-4.8 0-8.6 1.2-12 3.3-2.9 1.8-5.5 4.3-7.7 7.6h-.2c-2.6-6.6-8.8-10.9-16.8-10.9-10.3 0-14.9 5.2-17.7 9.6h-.2v-8.3h-15.7z" fill="#fff"/></svg>