<svg version="1.1" id="Layer_1" xmlns="http://www.w3.org/2000/svg" x="0" y="0" viewBox="0 0 186 41.4" xml:space="preserve"><path d="M70.1 25.3v2.8h.4c.1-.4.8-1.2 1.7-1.2h2.7v14.3h2.7V26.9h2.8c.9 0 1.5.5 1.6 1v.1h.4l-.1-2.7H70.1zM17.8 35.4c-2.1 4.3-5.3 4.3-6.6 4.3-5.5 0-8-4.6-8-8.8 0-4.1 2.5-8.3 8-8.3 1.7 0 4.8.6 6.4 4.3l.1.2.5-.2-.2-4.1-.1-.1c-2.6-1.1-4.7-1.6-6.8-1.6-3.4.1-6.3 1.2-8.3 3.3C1 26.2 0 28.8 0 31.3c0 2.9 1.2 5.5 3.2 7.3s4.7 2.8 7.5 2.8c1.5 0 4.4-.3 7.3-2l.1-.1.3-4-.5-.1-.1.2zm15 4.1c-.4-.5-1.1-1.6-2.1-3.2l-1-1.6c-.3-.4-.7-1-1.5-1.5 1.5-.5 2.9-1.8 2.9-3.8 0-.6-.1-1.7-1.1-2.6-1-.9-2.5-1.4-4.6-1.4l-4.3-.1-.1.4c.2.1.5.7.5 1.4v14h2.6v-7.2h1.1c1 .1 1.4.7 2 1.6l.1.1.3.6c.6.9 1.3 2.2 2.1 3.4.6.9 1.3 1.3 2.2 1.5.6.1 1.9.1 2.4-.1l.6-.1.2-.1-.8-.2c-.3-.1-.8-.3-1.5-1.1zm-7.5-6.9h-1.1v-5.7c.3-.1.8-.2 1.4-.1 2.7.1 2.8 2.4 2.8 2.7 0 2.3-1.7 3.1-3.1 3.1zm28-7.4l-5.3.1v.4c.2.1.4.7.4 1.2v14.2h4.5c3 0 5.4-.9 7.1-2.7 1.4-1.5 2.2-3.4 2.2-5.5 0-1.2-.4-3.1-1.6-4.6-1.6-2-4-3.1-7.3-3.1zm4.8 12.4C57 39 55.3 39.7 53 39.7h-1.9V26.9h1.4c.4 0 1.3 0 2 .1 4.4.7 4.9 4.4 4.9 6 0 1.3-.2 3.1-1.3 4.6zm6.5-11.9c.3.1.5.7.5 1.3v14.1h2.6V25.3h-3.1v.4zm53 0c.3.1.5.7.5 1.3v14.1h2.6V25.3h-3.1v.4zM45.3 38.4c-.7 1.1-1.5 1.3-4 1.3-.9 0-1.8-.1-2.4-.1v-6.4h4.5v-1.5h-4.5v-4.9h3.6c.8 0 1.7.8 1.8 1.3v.1h.4l-.1-2.9h-8.8l.1.4c.2.1.5.7.5 1.4v14h8.8l.6-2.8-.4-.1-.1.2zm112.7 0c-.7 1.1-1.5 1.3-4 1.3-.9 0-1.8-.1-2.4-.1v-6.4h4.5v-1.5h-4.5v-4.9h3.6c1 0 1.7.8 1.7 1.3v.1h.4l.1-2.9h-8.8v.4c.2.1.5.6.5 1.4v14h8.8l.6-2.8-.4-.1-.1.2zm-62.9-8.9l-.5-.3c-2.6-1.3-3.8-2.1-3.8-3.7 0-1.1.9-2.9 3.1-2.9 2.6 0 4 2 4.3 3.2l.1.2.6-.1-.2-3.6-.1-.1c-1.5-1-3.4-1.2-4.2-1.2-1.8.1-3.3.6-4.4 1.4-.9.7-2 1.9-2.1 4v.1c0 2.5 1.6 3.9 4.2 5.2.1.1.3.2 1 .5 2.2 1.1 3.7 1.9 3.7 4.1 0 .8-.3 1.9-1.1 2.7-.7.7-1.6 1-2.7 1-3.3 0-4.5-2.9-4.8-4.2l-.1-.2-.6.1.2 4.1.3-.1c1.1.6 2.8 1.6 5.4 1.7 1.8 0 3.6-.7 4.9-2 1.1-1.1 1.7-2.5 1.7-4 0-3.3-2.4-4.6-4.9-5.9zm35.4 2.2l-.4-.2c-2.2-1.1-2.9-1.6-2.9-2.8 0-.9.6-2.1 2.4-2.1 2.1 0 3 1.6 3.2 2.4l.1.2.5-.1-.2-2.9-.1-.1c-1.2-.8-2.7-.9-3.3-.9-2.3 0-4.8 1.4-4.8 4.1 0 2.2 1.3 3.3 3.4 4.4l.8.4c1.7.8 2.8 1.4 2.8 3 0 .3-.1 1.2-.8 2-.5.5-1.2.8-2.1.7-2.5 0-3.4-2-3.8-3.1l-.1-.2-.5.1.1 3.3.1.1c.8.5 2.2 1.3 4.3 1.3 1.4 0 2.9-.6 3.9-1.6.9-.9 1.3-2 1.3-3.2 0-2.8-1.9-3.8-3.9-4.8zm11.8 0l-.4-.2c-2.2-1.1-2.9-1.6-2.9-2.8 0-.5.2-1.1.6-1.5.4-.4 1-.6 1.7-.6 2.1 0 3 1.6 3.2 2.4l.1.2.5-.1-.2-2.9-.1-.1c-1.2-.8-2.7-.9-3.3-.9-2.1 0-4.7 1.4-4.7 4.1 0 2.2 1.3 3.3 3.4 4.4l.8.4c1.7.8 2.8 1.4 2.8 3 0 .3-.1 1.2-.8 2-.5.5-1.2.8-2.1.7-2.5 0-3.4-2-3.8-3.1l-.1-.2-.5.1.1 3.3.1.1c.8.5 2.2 1.3 4.3 1.3 1.4 0 2.9-.6 3.9-1.6.9-.9 1.3-2 1.3-3.2 0-2.8-1.9-3.8-3.9-4.8zm-30.2-6c.1.1.4.3.4 1.3v9c0 1.7-.6 3.8-3.7 3.8-2.9 0-3.5-1.7-3.5-4.3V25.3H102v.4c.2.1.6.5.6 1.4v8.4c0 5.2 3.4 5.8 6 5.8 1.3 0 5.4-.4 5.4-5.3l.2-10.7h-2.1v.4zm73.9-2.3C180.9 15 171.9 5.9 163 0c2.3 2.3 6 7.3 7 12.6 3.6 2.6 7 5.4 10.1 8.2 1.9.6 3.8 1.4 5.9 2.6zm-5.9-2.6c-4.4-1.4-8.1-1.5-10.8-1.2 1-2.3 1.1-4.7.7-7-6.7-4.8-14.2-9-21.3-12.1 5.2 3.5 11 13.8 13.4 24.8 5.2-1.5 13.1-2.6 23.4.9-1.7-1.8-3.5-3.6-5.4-5.4z" fill="#fff"/></svg>