<svg version="1.1" id="Layer_1" xmlns="http://www.w3.org/2000/svg" x="0" y="0" viewBox="0 0 93.7 37.8" xml:space="preserve"><linearGradient id="SVGID_1_" gradientUnits="userSpaceOnUse" x1="-849.258" y1="541.67" x2="-848.551" y2="540.963"><stop offset="0" stop-color="#20ac4b"/><stop offset=".983" stop-color="#19361a"/></linearGradient><path d="M93.7 2.7H78.1l1-2.7h14.6zM52.1 0h14.5l.9 2.7H52.1V0zM40.6 0c2.4.2 4.5 1.1 6.2 2.7H20.5V0h20.1zM0 0h18.2v2.7H0zm93.7 7.7H76.3l.9-2.7h16.4v2.7zm-24.3 0H52.1V5.1h16.3zM48.9 5.1c.3.9.8 1.6.8 2.7H20.6V5.1h28.3zM0 5.1h18.2v2.7H0zm74.6 7.7l.9-2.7h13.1v2.7zm-4.4-2.7l1 2.7H57.3v-2.7zm-20.3 0c0 .9-.1 1.9-.4 2.7h-8v-2.7h8.4zm-44.8 0h7.8v2.7H5.1zm20.8 0h7.8v2.7h-7.8zM65 15.7v2h-7.7V15H72l.9 2.5.9-2.5h14.8v2.7h-7.7v-2l-.7 2H65.7l-.7-2zm-39.1-.6h22.5c-.5.9-1.4 2-2.2 2.7H26c-.1-.1-.1-2.7-.1-2.7zm-20.8 0h7.8v2.7H5.1zm75.8 5h7.7v2.7h-7.7zm-15.9 0h-7.7v2.7H65v-2.7zm14.4 0l-.9 2.7H67.6l-1-2.7h12.8zm-53.5 0h20.2c.9.8 1.8 1.7 2.4 2.7H25.9v-2.7zm-13 2.7v-2.7H5.1v2.7zm68 2.4h7.7v2.7h-7.7zm-23.6 0H65v2.7h-7.7zm19.3 2.7s.9-2.7 1-2.7h-9.3l1 2.7h7.3zm-50.7-.1v-2.7h7.9v2.7h-7.9zm23.7-2.6c.4.8.4 1.8.5 2.7h-8.4v-2.7h7.9zm-44.5 0h7.8v2.7H5.1zm75.8 4.9h12.8v2.7H80.9zm-28.8 0h12.8v2.7H52.1zm22.8 2.7H71l-1-2.7h5.8zM0 30.1v2.7h18.2v-2.7H0zm49.8 0c-.2.9-.4 2-1 2.7H20.6v-2.7h29.2zm23.3 7.7h-.3l-1-2.6h2.3zm7.8-2.6h12.8v2.7H80.9zm-60.3 2.6v-2.7H47c-1.8 1.7-4.2 2.6-6.8 2.7H20.6m31.5-2.6h12.8v2.7H52.1zm-33.9 0v2.7H0v-2.7h18.2z" fill="#fff"/></svg>