<svg xmlns="http://www.w3.org/2000/svg" version="1.1" id="Layer_1" x="0" y="0" viewBox="0 0 310 310" xml:space="preserve" width="512" height="512"><g id="XMLID_828_"><path id="XMLID_829_" d="M249.775 236.928a4.997 4.997 0 0 0-5.119.221c-14.15 9.295-28.469 14.007-42.557 14.007-7.678 0-14.285-1.725-20.236-5.297-4.023-2.366-6.688-5.399-8.139-9.257-1.107-2.978-2.43-10.9-2.43-31.739v-71.945h66.168a5 5 0 0 0 5-5v-47.1a5 5 0 0 0-5-5h-66.168V5a5 5 0 0 0-5-5H123.61a4.999 4.999 0 0 0-4.961 4.386c-1.836 14.831-5.201 27.143-10.01 36.601-4.744 9.381-11.141 17.526-19.018 24.216-7.842 6.687-17.451 11.899-28.563 15.491a5 5 0 0 0-3.463 4.758v42.466a5 5 0 0 0 5 5h28.168v100.237c0 14.492 1.523 25.36 4.656 33.218 3.158 7.955 8.83 15.496 16.863 22.418 7.922 6.801 17.568 12.104 28.67 15.758 10.971 3.618 23.73 5.452 37.922 5.452 12.416 0 24.141-1.269 34.85-3.772 10.73-2.514 22.779-6.91 35.811-13.065a4.999 4.999 0 0 0 2.865-4.521v-47.314a4.99 4.99 0 0 0-2.625-4.401z" fill="#FFF"/></g></svg>