<?xml version="1.0" encoding="utf-8"?>
<!-- Generator: Adobe Illustrator 22.1.0, SVG Export Plug-In . SVG Version: 6.00 Build 0)  -->
<svg version="1.1" id="Layer_1" xmlns="http://www.w3.org/2000/svg" xmlns:xlink="http://www.w3.org/1999/xlink" x="0px" y="0px"
	 viewBox="0 0 59.7 816.3" style="enable-background:new 0 0 59.7 816.3;" xml:space="preserve">
<style type="text/css">
	.st0{opacity:0.5;}
	.st1{fill:#FFFFFF;}
	.st2{clip-path:url(#SVGID_2_);}
	.st3{clip-path:url(#SVGID_4_);}
</style>
<g class="st0">
	<path class="st1" d="M30.1,816.3c-5.5,0-10.1-4.5-10.1-10s4.4-10,9.9-10h0.2c5.5,0,10,4.5,10,10S35.6,816.3,30.1,816.3z
		 M29.9,756.6c-5.5,0-10-4.5-10-10v-19.9c0-5.5,4.5-10,10-10s10,4.5,10,10v19.9C39.8,752.1,35.4,756.6,29.9,756.6z M29.9,676.9
		c-5.5,0-10-4.5-10-10v-19.9c0-5.5,4.5-10,10-10s10,4.5,10,10V667C39.8,672.5,35.4,676.9,29.9,676.9z M29.9,597.3
		c-5.5,0-10-4.5-10-10v-19.9c0-5.5,4.5-10,10-10s10,4.5,10,10v19.9C39.8,592.9,35.4,597.3,29.9,597.3z M29.9,517.7
		c-5.5,0-10-4.5-10-10v-19.9c0-5.5,4.5-10,10-10s10,4.5,10,10v19.9C39.8,513.2,35.4,517.7,29.9,517.7z M29.9,438
		c-5.5,0-10-4.5-10-10v-19.9c0-5.5,4.5-10,10-10s10,4.5,10,10v19.9C39.8,433.6,35.4,438,29.9,438z M29.9,358.4c-5.5,0-10-4.5-10-10
		v-19.9c0-5.5,4.5-10,10-10s10,4.5,10,10v19.9C39.8,353.9,35.4,358.4,29.9,358.4z M29.9,278.7c-5.5,0-10-4.5-10-10v-19.9
		c0-5.5,4.5-10,10-10s10,4.5,10,10v19.9C39.8,274.3,35.4,278.7,29.9,278.7z M29.9,199.1c-5.5,0-10-4.5-10-10v-19.9
		c0-5.5,4.5-10,10-10s10,4.5,10,10v19.9C39.8,194.6,35.4,199.1,29.9,199.1z M29.9,119.5c-5.5,0-10-4.5-10-10V89.6
		c0-5.5,4.5-10,10-10s10,4.5,10,10v19.9C39.8,115,35.4,119.5,29.9,119.5z M29.9,39.8c-5.5,0-10-4.5-10-10V10c0-5.5,4.5-10,10-10
		s10,4.5,10,10v19.9C39.8,35.4,35.4,39.8,29.9,39.8z"/>
</g>
<g>
	<defs>
		<rect id="SVGID_1_" y="3.7" width="59.7" height="37.7"/>
	</defs>
	<clipPath id="SVGID_2_">
		<use xlink:href="#SVGID_1_"  style="overflow:visible;"/>
	</clipPath>
	<g class="st2">
		<defs>
			<rect id="SVGID_3_" x="-14305.4" y="-18423.2" width="28670.6" height="20388"/>
		</defs>
		<clipPath id="SVGID_4_">
			<use xlink:href="#SVGID_3_"  style="overflow:visible;"/>
		</clipPath>
		<g class="st3">
			<rect x="-99.6" y="-95.9" class="st1" width="258.8" height="236.8"/>
		</g>
	</g>
</g>
</svg>
