<?xml version="1.0" encoding="utf-8"?>
<!-- Generator: Adobe Illustrator 22.1.0, SVG Export Plug-In . SVG Version: 6.00 Build 0)  -->
<svg version="1.1" id="Layer_1" xmlns="http://www.w3.org/2000/svg" xmlns:xlink="http://www.w3.org/1999/xlink" x="0px" y="0px"
	 viewBox="0 0 296.7 303.7" style="enable-background:new 0 0 296.7 303.7;" xml:space="preserve">
<style type="text/css">
	.st0{fill:#FFFFFF;}
</style>
<g>
	<path class="st0" d="M89.6,141.3H10.4C4.6,141.3,0,146,0,151.9c0,5.9,4.6,10.6,10.4,10.6h79.3c5.7,0,10.4-4.7,10.4-10.6
		C100,146,95.4,141.3,89.6,141.3z"/>
	<path class="st0" d="M148.4,0C142.6,0,138,4.7,138,10.6v282.5c0,5.9,4.6,10.6,10.4,10.6c5.7,0,10.4-4.7,10.4-10.6V10.6
		C158.7,4.7,154.1,0,148.4,0z"/>
	<path class="st0" d="M286.4,141.3l-79.3,0c-5.7,0-10.4,4.7-10.4,10.6c0,5.8,4.6,10.6,10.4,10.6l79.3,0c5.7,0,10.4-4.7,10.4-10.6
		C296.7,146,292.1,141.3,286.4,141.3z"/>
</g>
</svg>
