<?xml version="1.0" encoding="utf-8"?>
<!-- Generator: Adobe Illustrator 22.1.0, SVG Export Plug-In . SVG Version: 6.00 Build 0)  -->
<svg version="1.1" id="Layer_1" xmlns="http://www.w3.org/2000/svg" xmlns:xlink="http://www.w3.org/1999/xlink" x="0px" y="0px"
	 viewBox="0 0 50 50" style="enable-background:new 0 0 50 50;" xml:space="preserve">
<style type="text/css">
	.st0{fill-rule:evenodd;clip-rule:evenodd;fill:#FFFFFF;}
</style>
<path class="st0" d="M25,0C11.2,0,0,11.2,0,25s11.2,25,25,25c13.8,0,25-11.2,25-25S38.8,0,25,0z M27.4,28l-1.7,1.7
	C25.5,29.9,25.3,30,25,30s-0.5-0.1-0.7-0.3l-8-8c-0.4-0.4-0.4-1,0-1.4s1-0.4,1.4,0l7.3,7.3l1-1c0.4-0.4,1-0.4,1.4,0
	S27.8,27.6,27.4,28z M33.7,21.7l-3.4,3.4c-0.2,0.2-0.5,0.3-0.7,0.3s-0.5-0.1-0.7-0.3c-0.4-0.4-0.4-1,0-1.4l3.4-3.4
	c0.4-0.4,1-0.4,1.4,0C34.1,20.7,34.1,21.3,33.7,21.7z"/>
</svg>
