<?xml version="1.0" encoding="utf-8"?>
<!-- Generator: Adobe Illustrator 22.1.0, SVG Export Plug-In . SVG Version: 6.00 Build 0)  -->
<svg version="1.1" id="Layer_1" xmlns="http://www.w3.org/2000/svg" xmlns:xlink="http://www.w3.org/1999/xlink" x="0px" y="0px"
	 viewBox="0 0 450 450" style="enable-background:new 0 0 450 450;" xml:space="preserve">
<style type="text/css">
	.st0{fill:#36F461;}
</style>
<g>
	<path class="st0" d="M327.1,143.2L183.2,287l-60.3-60.3c-3.4-3.4-8.9-3.4-12.2,0c-3.4,3.4-3.4,8.9,0,12.2l66.4,66.4
		c1.6,1.6,3.8,2.5,6.1,2.5s4.5-0.9,6.1-2.5l150-150c3.4-3.4,3.4-8.9,0-12.2C335.9,139.8,330.4,139.8,327.1,143.2z"/>
	<path class="st0" d="M225,0C100.9,0,0,100.9,0,225c0,124.1,100.9,225,225,225c124.1,0,225-100.9,225-225C450,100.9,349.1,0,225,0z
		 M225,432.7c-114.5,0-207.7-93.2-207.7-207.7S110.5,17.3,225,17.3S432.7,110.5,432.7,225S339.5,432.7,225,432.7z"/>
</g>
</svg>
