<?xml version="1.0" encoding="utf-8"?>
<!-- Generator: Adobe Illustrator 22.1.0, SVG Export Plug-In . SVG Version: 6.00 Build 0)  -->
<svg version="1.1" id="Layer_1" xmlns="http://www.w3.org/2000/svg" xmlns:xlink="http://www.w3.org/1999/xlink" x="0px" y="0px"
	 viewBox="0 0 505.2 16.1" style="enable-background:new 0 0 505.2 16.1;" xml:space="preserve">
<style type="text/css">
	.st0{opacity:0.5;}
	.st1{fill:#080B10;}
	.st2{clip-path:url(#SVGID_2_);}
	.st3{clip-path:url(#SVGID_4_);}
</style>
<g class="st0">
	<path class="st1" d="M502.5,10.7h-5.4c-1.5,0-2.7-1.2-2.7-2.7s1.2-2.7,2.7-2.7h5.4c1.5,0,2.7,1.2,2.7,2.7S504,10.7,502.5,10.7z
		 M481,10.7h-5.4c-1.5,0-2.7-1.2-2.7-2.7s1.2-2.7,2.7-2.7h5.4c1.5,0,2.7,1.2,2.7,2.7S482.5,10.7,481,10.7z M459.5,10.7h-5.4
		c-1.5,0-2.7-1.2-2.7-2.7s1.2-2.7,2.7-2.7h5.4c1.5,0,2.7,1.2,2.7,2.7S461,10.7,459.5,10.7z M438,10.7h-5.4c-1.5,0-2.7-1.2-2.7-2.7
		s1.2-2.7,2.7-2.7h5.4c1.5,0,2.7,1.2,2.7,2.7S439.5,10.7,438,10.7z M416.5,10.7h-5.4c-1.5,0-2.7-1.2-2.7-2.7s1.2-2.7,2.7-2.7h5.4
		c1.5,0,2.7,1.2,2.7,2.7S418,10.7,416.5,10.7z M395,10.7h-5.4c-1.5,0-2.7-1.2-2.7-2.7s1.2-2.7,2.7-2.7h5.4c1.5,0,2.7,1.2,2.7,2.7
		S396.5,10.7,395,10.7z M373.5,10.7h-5.4c-1.5,0-2.7-1.2-2.7-2.7s1.2-2.7,2.7-2.7h5.4c1.5,0,2.7,1.2,2.7,2.7S375,10.7,373.5,10.7z
		 M352,10.7h-5.4c-1.5,0-2.7-1.2-2.7-2.7s1.2-2.7,2.7-2.7h5.4c1.5,0,2.7,1.2,2.7,2.7S353.5,10.7,352,10.7z M330.5,10.7h-5.4
		c-1.5,0-2.7-1.2-2.7-2.7s1.2-2.7,2.7-2.7h5.4c1.5,0,2.7,1.2,2.7,2.7S332,10.7,330.5,10.7z M309,10.7h-5.4c-1.5,0-2.7-1.2-2.7-2.7
		s1.2-2.7,2.7-2.7h5.4c1.5,0,2.7,1.2,2.7,2.7S310.5,10.7,309,10.7z M287.5,10.7h-5.4c-1.5,0-2.7-1.2-2.7-2.7s1.2-2.7,2.7-2.7h5.4
		c1.5,0,2.7,1.2,2.7,2.7S289,10.7,287.5,10.7z M266,10.7h-5.4c-1.5,0-2.7-1.2-2.7-2.7s1.2-2.7,2.7-2.7h5.4c1.5,0,2.7,1.2,2.7,2.7
		S267.5,10.7,266,10.7z M244.5,10.7h-5.4c-1.5,0-2.7-1.2-2.7-2.7s1.2-2.7,2.7-2.7h5.4c1.5,0,2.7,1.2,2.7,2.7S246,10.7,244.5,10.7z
		 M223,10.7h-5.4c-1.5,0-2.7-1.2-2.7-2.7s1.2-2.7,2.7-2.7h5.4c1.5,0,2.7,1.2,2.7,2.7S224.5,10.7,223,10.7z M201.5,10.7h-5.4
		c-1.5,0-2.7-1.2-2.7-2.7s1.2-2.7,2.7-2.7h5.4c1.5,0,2.7,1.2,2.7,2.7S203,10.7,201.5,10.7z M180,10.7h-5.4c-1.5,0-2.7-1.2-2.7-2.7
		s1.2-2.7,2.7-2.7h5.4c1.5,0,2.7,1.2,2.7,2.7S181.5,10.7,180,10.7z M158.5,10.7h-5.4c-1.5,0-2.7-1.2-2.7-2.7s1.2-2.7,2.7-2.7h5.4
		c1.5,0,2.7,1.2,2.7,2.7S160,10.7,158.5,10.7z M137,10.7h-5.4c-1.5,0-2.7-1.2-2.7-2.7s1.2-2.7,2.7-2.7h5.4c1.5,0,2.7,1.2,2.7,2.7
		S138.5,10.7,137,10.7z M115.5,10.7h-5.4c-1.5,0-2.7-1.2-2.7-2.7s1.2-2.7,2.7-2.7h5.4c1.5,0,2.7,1.2,2.7,2.7S117,10.7,115.5,10.7z
		 M94.1,10.7h-5.4c-1.5,0-2.7-1.2-2.7-2.7s1.2-2.7,2.7-2.7h5.4c1.5,0,2.7,1.2,2.7,2.7S95.5,10.7,94.1,10.7z M72.6,10.7h-5.4
		c-1.5,0-2.7-1.2-2.7-2.7s1.2-2.7,2.7-2.7h5.4c1.5,0,2.7,1.2,2.7,2.7S74,10.7,72.6,10.7z M51.1,10.7h-5.4c-1.5,0-2.7-1.2-2.7-2.7
		s1.2-2.7,2.7-2.7h5.4c1.5,0,2.7,1.2,2.7,2.7S52.5,10.7,51.1,10.7z M29.6,10.7h-5.4c-1.5,0-2.7-1.2-2.7-2.7s1.2-2.7,2.7-2.7h5.4
		c1.5,0,2.7,1.2,2.7,2.7S31,10.7,29.6,10.7z M8.1,10.7H2.7C1.2,10.7,0,9.5,0,8.1s1.2-2.7,2.7-2.7h5.4c1.5,0,2.7,1.2,2.7,2.7
		S9.5,10.7,8.1,10.7z"/>
</g>
<g>
	<defs>
		<rect id="SVGID_1_" x="1" width="10.2" height="16.1"/>
	</defs>
	<clipPath id="SVGID_2_">
		<use xlink:href="#SVGID_1_"  style="overflow:visible;"/>
	</clipPath>
	<g class="st2">
		<defs>
			<rect id="SVGID_3_" x="-321.5" y="-11570.9" width="7739" height="33342.2"/>
		</defs>
		<clipPath id="SVGID_4_">
			<use xlink:href="#SVGID_3_"  style="overflow:visible;"/>
		</clipPath>
		<g class="st3">
			<rect x="-25.9" y="-26.9" class="st1" width="63.9" height="69.9"/>
		</g>
	</g>
</g>
</svg>
