<?xml version="1.0" encoding="utf-8"?>
<!-- Generator: Adobe Illustrator 22.1.0, SVG Export Plug-In . SVG Version: 6.00 Build 0)  -->
<svg version="1.1" id="Layer_1" xmlns="http://www.w3.org/2000/svg" xmlns:xlink="http://www.w3.org/1999/xlink" x="0px" y="0px"
	 viewBox="0 0 104 104" style="enable-background:new 0 0 104 104;" xml:space="preserve">
<style type="text/css">
	.Arched_x0020_Green{fill:url(#SVGID_1_);stroke:#FFFFFF;stroke-width:0.25;stroke-miterlimit:1;}
	.st0{fill:#FFFFFF;}
</style>
<linearGradient id="SVGID_1_" gradientUnits="userSpaceOnUse" x1="-334.975" y1="154.1519" x2="-334.2679" y2="153.4448">
	<stop  offset="0" style="stop-color:#20AC4B"/>
	<stop  offset="0.9831" style="stop-color:#19361A"/>
</linearGradient>
<path class="st0" d="M7.4,52c0,17.7,10.3,32.9,25.1,40.2L11.3,33.9C8.8,39.4,7.4,45.5,7.4,52z M82.1,49.8c0-5.5-2-9.3-3.7-12.3
	c-2.3-3.7-4.4-6.8-4.4-10.5c0-4.1,3.1-7.9,7.5-7.9c0.2,0,0.4,0,0.6,0C74.2,11.8,63.6,7.4,52,7.4c-15.6,0-29.3,8-37.3,20.1
	c1,0,2,0.1,2.9,0.1c4.7,0,11.9-0.6,11.9-0.6c2.4-0.1,2.7,3.4,0.3,3.7c0,0-2.4,0.3-5.1,0.4l16.2,48.3l9.8-29.3l-7-19
	c-2.4-0.1-4.7-0.4-4.7-0.4c-2.4-0.1-2.1-3.8,0.3-3.7c0,0,7.4,0.6,11.8,0.6C55.8,27.6,63,27,63,27c2.4-0.1,2.7,3.4,0.3,3.7
	c0,0-2.4,0.3-5.1,0.4l16.1,48l4.5-14.9C81,58.4,82.1,53.6,82.1,49.8z M52.8,55.9L39.4,94.8c4,1.2,8.2,1.8,12.6,1.8
	c5.2,0,10.2-0.9,14.8-2.5c-0.1-0.2-0.2-0.4-0.3-0.6L52.8,55.9z M91.2,30.6c0.2,1.4,0.3,2.9,0.3,4.6c0,4.5-0.8,9.6-3.4,16L74.4,90.6
	C87.7,82.8,96.6,68.5,96.6,52C96.6,44.3,94.6,37,91.2,30.6z"/>
<g>
	<path class="st0" d="M0,52c0,28.7,23.3,52,52,52c28.7,0,52-23.3,52-52c0-28.7-23.3-52-52-52C23.3,0,0,23.3,0,52z M2.4,52
		C2.4,24.6,24.6,2.4,52,2.4c27.4,0,49.6,22.3,49.6,49.6c0,27.4-22.3,49.6-49.6,49.6C24.6,101.6,2.4,79.4,2.4,52z"/>
</g>
</svg>
