<?xml version="1.0" encoding="utf-8"?>
<!-- Generator: Adobe Illustrator 22.1.0, SVG Export Plug-In . SVG Version: 6.00 Build 0)  -->
<svg version="1.1" id="Layer_1" xmlns="http://www.w3.org/2000/svg" xmlns:xlink="http://www.w3.org/1999/xlink" x="0px" y="0px"
	 viewBox="0 0 186 41.4" style="enable-background:new 0 0 186 41.4;" xml:space="preserve">
<style type="text/css">
	.st0{fill:#FFFFFF;}
</style>
<path class="st0" d="M70.1,25.3v2.8h0.4c0.1-0.4,0.8-1.2,1.7-1.2c0,0,2.6,0,2.7,0c0,0.1,0,14.3,0,14.3h2.7c0,0,0-14.2,0-14.3
	c0.1,0,2.8,0,2.8,0c0.9,0,1.5,0.5,1.6,1V28h0.4l-0.1-2.7H70.1z"/>
<path class="st0" d="M17.8,35.4c-2.1,4.3-5.3,4.3-6.6,4.3c-5.5,0-8-4.6-8-8.8c0-4.1,2.5-8.3,8-8.3c1.7,0,4.8,0.6,6.4,4.3l0.1,0.2
	l0.5-0.2L18,22.8l-0.1-0.1c-2.6-1.1-4.7-1.6-6.8-1.6c-3.4,0.1-6.3,1.2-8.3,3.3C1,26.2,0,28.8,0,31.3c0,2.9,1.2,5.5,3.2,7.3
	s4.7,2.8,7.5,2.8c1.5,0,4.4-0.3,7.3-2l0.1-0.1l0.3-4l-0.5-0.1L17.8,35.4z"/>
<path class="st0" d="M32.8,39.5c-0.4-0.5-1.1-1.6-2.1-3.2l-1-1.6c-0.3-0.4-0.7-1-1.5-1.5c1.5-0.5,2.9-1.8,2.9-3.8
	c0-0.6-0.1-1.7-1.1-2.6c-1-0.9-2.5-1.4-4.6-1.4l-4.3-0.1L21,25.7c0.2,0.1,0.5,0.7,0.5,1.4v14h2.6c0,0,0-7.1,0-7.2c0.1,0,1.1,0,1.1,0
	c1,0.1,1.4,0.7,2,1.6l0.1,0.1l0.3,0.6c0.6,0.9,1.3,2.2,2.1,3.4c0.6,0.9,1.3,1.3,2.2,1.5c0.6,0.1,1.9,0.1,2.4-0.1l0.6-0.1l0.2-0.1
	l-0.8-0.2C34,40.5,33.5,40.3,32.8,39.5z M25.3,32.6c0,0-0.9,0-1.1,0c0-0.1,0-5.6,0-5.7c0.3-0.1,0.8-0.2,1.4-0.1
	c2.7,0.1,2.8,2.4,2.8,2.7C28.4,31.8,26.7,32.6,25.3,32.6z"/>
<path class="st0" d="M53.3,25.2L48,25.3v0.4c0.2,0.1,0.4,0.7,0.4,1.2v14.2h4.5c3,0,5.4-0.9,7.1-2.7c1.4-1.5,2.2-3.4,2.2-5.5
	c0-1.2-0.4-3.1-1.6-4.6C59,26.3,56.6,25.2,53.3,25.2z M58.1,37.6C57,39,55.3,39.7,53,39.7c-0.5,0-1.2,0-1.9,0c0-0.2,0-12.7,0-12.8
	c0.1,0,1.4,0,1.4,0c0.4,0,1.3,0,2,0.1c4.4,0.7,4.9,4.4,4.9,6C59.4,34.3,59.2,36.1,58.1,37.6z"/>
<path class="st0" d="M64.6,25.7c0.3,0.1,0.5,0.7,0.5,1.3v14.1h2.6V25.3h-3.1V25.7z"/>
<path class="st0" d="M117.6,25.7c0.3,0.1,0.5,0.7,0.5,1.3v14.1h2.6V25.3h-3.1V25.7z"/>
<path class="st0" d="M45.3,38.4c-0.7,1.1-1.5,1.3-4,1.3c-0.9,0-1.8-0.1-2.4-0.1c0-0.1,0-6.3,0-6.4c0.1,0,4.5,0,4.5,0v-1.5
	c0,0-4.3,0-4.5,0c0-0.1,0-4.8,0-4.9c0.1,0,3.6,0,3.6,0c0.8,0,1.7,0.8,1.8,1.3v0.1h0.4l-0.1-2.9h-8.8l0.1,0.4
	c0.2,0.1,0.5,0.7,0.5,1.4v14h8.8l0.6-2.8l-0.4-0.1L45.3,38.4z"/>
<path class="st0" d="M158,38.4c-0.7,1.1-1.5,1.3-4,1.3c-0.9,0-1.8-0.1-2.4-0.1c0-0.1,0-6.3,0-6.4c0.1,0,4.5,0,4.5,0v-1.5
	c0,0-4.3,0-4.5,0c0-0.1,0-4.8,0-4.9c0.1,0,3.6,0,3.6,0c1,0,1.7,0.8,1.7,1.3v0.1h0.4l0.1-2.9h-8.8v0.4c0.2,0.1,0.5,0.6,0.5,1.4v14
	h8.8l0.6-2.8l-0.4-0.1L158,38.4z"/>
<path class="st0" d="M95.1,29.5l-0.5-0.3c-2.6-1.3-3.8-2.1-3.8-3.7c0-1.1,0.9-2.9,3.1-2.9c2.6,0,4,2,4.3,3.2l0.1,0.2l0.6-0.1
	l-0.2-3.6l-0.1-0.1c-1.5-1-3.4-1.2-4.2-1.2c-1.8,0.1-3.3,0.6-4.4,1.4c-0.9,0.7-2,1.9-2.1,4c0,0,0,0,0,0.1c0,2.5,1.6,3.9,4.2,5.2
	c0.1,0.1,0.3,0.2,1,0.5c2.2,1.1,3.7,1.9,3.7,4.1c0,0.8-0.3,1.9-1.1,2.7c-0.7,0.7-1.6,1-2.7,1c-3.3,0-4.5-2.9-4.8-4.2l-0.1-0.2
	l-0.6,0.1l0.2,4.1l0.3-0.1c1.1,0.6,2.8,1.6,5.4,1.7c1.8,0,3.6-0.7,4.9-2c1.1-1.1,1.7-2.5,1.7-4C100,32.1,97.6,30.8,95.1,29.5z"/>
<path class="st0" d="M130.5,31.7l-0.4-0.2c-2.2-1.1-2.9-1.6-2.9-2.8c0-0.9,0.6-2.1,2.4-2.1c2.1,0,3,1.6,3.2,2.4l0.1,0.2l0.5-0.1
	l-0.2-2.9l-0.1-0.1c-1.2-0.8-2.7-0.9-3.3-0.9c-2.3,0-4.8,1.4-4.8,4.1c0,2.2,1.3,3.3,3.4,4.4l0.8,0.4c1.7,0.8,2.8,1.4,2.8,3
	c0,0.3-0.1,1.2-0.8,2c-0.5,0.5-1.2,0.8-2.1,0.7c-2.5,0-3.4-2-3.8-3.1l-0.1-0.2l-0.5,0.1l0.1,3.3l0.1,0.1c0.8,0.5,2.2,1.3,4.3,1.3
	c1.4,0,2.9-0.6,3.9-1.6c0.9-0.9,1.3-2,1.3-3.2C134.4,33.7,132.5,32.7,130.5,31.7z"/>
<path class="st0" d="M142.3,31.7l-0.4-0.2c-2.2-1.1-2.9-1.6-2.9-2.8c0-0.5,0.2-1.1,0.6-1.5c0.4-0.4,1-0.6,1.7-0.6
	c2.1,0,3,1.6,3.2,2.4l0.1,0.2l0.5-0.1l-0.2-2.9l-0.1-0.1c-1.2-0.8-2.7-0.9-3.3-0.9c-2.1,0-4.7,1.4-4.7,4.1c0,2.2,1.3,3.3,3.4,4.4
	l0.8,0.4c1.7,0.8,2.8,1.4,2.8,3c0,0.3-0.1,1.2-0.8,2c-0.5,0.5-1.2,0.8-2.1,0.7c-2.5,0-3.4-2-3.8-3.1l-0.1-0.2l-0.5,0.1l0.1,3.3
	l0.1,0.1c0.8,0.5,2.2,1.3,4.3,1.3c1.4,0,2.9-0.6,3.9-1.6c0.9-0.9,1.3-2,1.3-3.2C146.2,33.7,144.3,32.7,142.3,31.7z"/>
<path class="st0" d="M112.1,25.7c0.1,0.1,0.4,0.3,0.4,1.3v9c0,1.7-0.6,3.8-3.7,3.8c-2.9,0-3.5-1.7-3.5-4.3V25.3H102v0.4
	c0.2,0.1,0.6,0.5,0.6,1.4v8.4c0,5.2,3.4,5.8,6,5.8c1.3,0,5.4-0.4,5.4-5.3l0.2-10.7h-2.1V25.7z"/>
<path class="st0" d="M186,23.4C180.9,15,171.9,5.9,163,0c2.3,2.3,6,7.3,7,12.6c3.6,2.6,7,5.4,10.1,8.2C182,21.4,183.9,22.2,186,23.4
	z"/>
<path class="st0" d="M180.1,20.8c-4.4-1.4-8.1-1.5-10.8-1.2c1-2.3,1.1-4.7,0.7-7c-6.7-4.8-14.2-9-21.3-12.1
	c5.2,3.5,11,13.8,13.4,24.8c5.2-1.5,13.1-2.6,23.4,0.9C183.8,24.4,182,22.6,180.1,20.8z"/>
</svg>
