<?xml version="1.0" encoding="utf-8"?>
<!-- Generator: Adobe Illustrator 22.1.0, SVG Export Plug-In . SVG Version: 6.00 Build 0)  -->
<svg version="1.1" id="Layer_1" xmlns="http://www.w3.org/2000/svg" xmlns:xlink="http://www.w3.org/1999/xlink" x="0px" y="0px"
	 viewBox="0 0 317.6 64.6" style="enable-background:new 0 0 317.6 64.6;" xml:space="preserve">
<style type="text/css">
	.st0{fill:#FFFFFF;}
</style>
<g id="layer1">
	<path id="path33" class="st0" d="M13.4,0v1.6h5.9v31c0,9.3-2.6,11.9-8.3,11.9c-3.6,0-4.2-2.8-4.2-4.2c0-3.4-0.2-5.5-3.3-5.5
		C0.4,34.9,0,38,0,39c0,4.3,1.9,7.5,10.4,7.5c10.1,0,15.5-3.4,15.5-14.7V1.6l6.1,0V0H13.4 M31.9,40.4c-0.7,0.7-1.1,1.6-1.1,2.6
		c0,1,0.4,1.9,1.1,2.5c0.7,0.7,1.6,1.1,2.6,1.1c1,0,1.9-0.3,2.6-1.1c0.7-0.7,1.1-1.5,1.1-2.5c0-1-0.4-1.9-1.1-2.6
		c-0.7-0.7-1.6-1-2.6-1C33.5,39.3,32.6,39.7,31.9,40.4 M73.4,40.4c-0.7,0.7-1.1,1.6-1.1,2.6c0,1,0.3,1.9,1.1,2.5
		c0.8,0.7,1.6,1.1,2.6,1.1c1,0,1.9-0.3,2.6-1.1c0.7-0.7,1.1-1.5,1.1-2.5c0-1-0.4-1.9-1.1-2.6c-0.7-0.7-1.6-1-2.6-1
		C75,39.3,74.1,39.7,73.4,40.4 M44.7,0v1.6h5.4V37c0,2.8-0.2,3.5-0.5,4.3c-0.3,0.9-1.1,1.6-2.2,2.1c-0.8,0.3-2.1,0.5-3.8,0.6v1.5
		h19.7v-1.4c-1.7,0-2.9-0.2-3.8-0.5c-1.2-0.5-1.9-1.1-2.3-2.1c-0.3-0.8-0.5-1.5-0.5-2.9V26.3l4.9,0c14.1,0,18.1-5.6,18.1-13.2
		C79.8,5.4,77.3,0,63,0L44.7,0 M56.8,1.8l3.4,0c10.9,0,13.3,4.5,13.3,11.8c0,7.3-4.3,11.1-12.9,11.1h-3.7V1.8 M130.8,0.1
		C130.7,0.5,117,34.7,117,34.7l-0.3,0.2l-0.3-0.2c0,0-14.6-34.1-14.8-34.6H88.7v1.5h5.6v35.1l-0.1,3.2c-0.1,0.8-0.4,1.6-0.8,2.2
		c-0.4,0.7-1.1,1.1-2.1,1.5c-0.6,0.2-1.5,0.3-2.6,0.4v1.5h12.8v-1.4c-1.1,0-1.6-0.2-2.2-0.4c-0.9-0.3-1.6-0.8-2.1-1.4
		c-0.4-0.6-0.7-1.4-0.8-2.2l-0.1-3.2V6.4H97c0,0,16.5,38.6,16.7,39h1.4l15.6-38.6h0.4v31.3c0,1.3-0.1,2.4-0.4,3.2
		c-0.3,0.9-1,1.6-1.9,2.1c-0.7,0.3-1.8,0.5-3.3,0.6v1.5h17.8v-1.5c-1.4-0.1-2.5-0.3-3.3-0.6c-1-0.5-1.7-1.2-2-2.2
		c-0.3-0.8-0.4-1.8-0.4-3.1V1.6l4.7,0V0.1H130.8 M146.6,29.5c0,16.2,12.6,17.2,15.3,17.2c5.4,0,15.6-3.3,15.6-17.5
		c0-11-6.5-17-15.3-17C152.6,12.1,146.6,18.5,146.6,29.5 M153.7,29.7c0-8.9,0.6-15.5,8.3-15.5c8.3,0,8.4,6.9,8.4,14.9
		c0,11.6-2,15.6-8.4,15.6C154.8,44.7,153.7,41.1,153.7,29.7 M193.3,19.4l-0.4,0c0,0-0.8-5-1.1-6.5c-2.2,0-11,0-11,0v1.7h6
		c0,0,0,5.1,0,6.9V37c0,2.2-0.2,3.8-0.7,4.7c-0.6,1.1-2,1.7-4.2,1.7h-1v2h18.5v-2h-1c-2.4,0-3.5-0.5-4.1-1.6
		c-0.6-0.9-0.9-2.5-0.9-4.8V25.4c0-3.9,3-8.4,6.5-8.4c3.7,0,3.6,5.7,7.8,3.4c2.3-1.2,1.9-7.8-5.2-7.8
		C196.7,12.6,194.9,16,193.3,19.4 M251,14.6c-2.1,1.6-2.9,3.1-2.9,5.2c0,1,0.3,1.7,0.8,2.2c0.6,0.5,1.2,0.7,2,0.7
		c1.8,0,2.9-0.9,3.3-3.3c0.3-1.8,0.7-2.8,1.6-3.7c0.9-1,2.4-1.5,4.4-1.5c2.3,0,4,0.6,4.9,1.9c0.8,1.2,1.3,2.8,1.3,4.7v5.4
		c-5.9,0.5-19.9,1.7-19.3,12.3c0.2,4.2,3.9,7.8,8.7,7.8c5.2,0,8.6-3,10.8-5.4c0.4,2.3,2.5,5,6.3,5c4.3,0,6.9-2.1,7.2-7.4h-1.1
		c-0.3,2.3-1.7,3.5-2.9,3.5c-2,0-2.6-1.1-2.8-2.9l-0.1-4.2V21.4c0-2.9-0.5-4.9-2.2-6.6c-1.7-1.7-5-2.6-9.8-2.6
		C256.5,12.1,253.1,13,251,14.6 M253.5,37.2c0-6,8.3-9.1,12.8-9.1v10.4l-0.1,0.3L266,39c-3.2,2.9-5.6,3.9-7.3,3.9
		C254.1,42.9,253.5,39.1,253.5,37.2 M292.9,18.8l-0.6,0l-1.2-5.9l-10,0v1.7c1.9,0.1,5,0.1,5,0.1V37c0,1.7-0.1,3-0.4,3.8
		c-0.3,1-0.9,1.7-1.9,2.1c-0.6,0.3-1.6,0.4-2.8,0.5v2h16v-2.1c-1.6-0.1-2.7-0.6-3.3-1.4c-0.6-0.9-0.9-2.4-0.9-4.6v-8.6
		c0-3.6,0-7,1.2-9.2c1.3-2.3,3.7-3.6,6.4-3.6c2.4,0,3.7,0.8,4.5,2.3c0.7,1.3,1.1,5,1.1,7.6l-0.1,10.6c0,1.8,0.2,3.1,0.1,3.9
		c-0.2,1-0.6,1.7-1.4,2.2c-0.6,0.4-1.4,0.6-2.6,0.7v2.1h15.4v-2c-1.9-0.1-3.2-0.6-3.8-1.5c-0.6-0.9-1.2-2.5-1.2-4.8l0.1-14.7
		c0-2.1-0.3-3.9-1.1-5.4c-0.8-1.5-1.9-2.6-3.3-3.3c-1.4-0.7-3.1-1.1-4.9-1.1C296.9,12.5,294.3,16.5,292.9,18.8 M241.5,10.8
		c-1,0.3-1.6,1.2-1.9,2.6c-0.3,1.3-0.8,2.1-1.4,2.3c-0.7,0.2-1.4,0.1-2.3-0.2c-1.7-1.5-4.8-3.4-10.4-3.4c-9,0-13,6.4-13,12.3
		c0,6.8,2.6,10.2,8.4,11.4c0.4,0.1,0.4,0.5,0,0.5c-4.9,1-9.3,2.4-9.3,7.1c0,2.8,1.6,4.4,3.7,5.2c2.3,0.9,5.5,1.4,9.6,1.5
		c3.5,0,6,0.2,7.7,0.4c1.8,0.2,3.2,0.7,4.2,1.5c1.1,0.8,1.6,2,1.6,3.6c0,2.2-1.2,3.9-3.5,5.2c-2.2,1.2-5.1,1.8-8.8,1.8
		c-3.1,0-5.7-0.3-8-1.8c-1.7-1.1-2.1-3.2-1.7-4.7c0.3-1.5-0.2-3.1-2-3.4c-1-0.2-2.2,0.4-2.8,1.2c-0.5,0.8-0.7,1.8-0.7,3
		c0,3.9,3,5.7,5.3,6.3c3.5,1.1,5.8,1.3,9,1.3c4.2,0,7.7-0.6,10.1-1.9c2.5-1.2,4.2-2.8,5.1-4.5c1-1.8,1.4-3.6,1.4-5.3
		c0-2.3-0.5-4.2-1.5-5.6c-3.2-4.4-7.8-3.9-18-4.3c-4.9,0-5.9-0.9-5.9-2.4c0-2.2,1.8-3.1,9-4.2c7-1.1,13.6-3.7,13.6-12.3
		c0-2.5-0.6-4.6-1.3-6.1c1.5,0.3,2.8,0.3,4-0.1c1.4-0.4,2.3-1.1,2.9-2.1c0.5-1,0.7-1.9,0.4-2.9c-0.5-1.5-1.3-2.3-2.4-2.3
		C242.3,10.7,241.9,10.7,241.5,10.8 M219,24.4c0-6,2.1-10.5,6.6-10.5c5.2,0,6.8,4.1,6.8,10.4c0,9-2.8,10.2-6.8,10.2
		C221.4,34.5,219,32.9,219,24.4"/>
</g>
</svg>
